G75*
%MOIN*%
%OFA0B0*%
%FSLAX25Y25*%
%IPPOS*%
%LPD*%
%AMOC8*
5,1,8,0,0,1.08239X$1,22.5*
%
%ADD10C,0.00000*%
%ADD11C,0.01600*%
%ADD12R,0.00080X0.00080*%
%ADD13R,0.01840X0.00080*%
%ADD14R,0.04000X0.00080*%
%ADD15R,0.05440X0.00080*%
%ADD16R,0.06400X0.00080*%
%ADD17R,0.07200X0.00080*%
%ADD18R,0.08080X0.00080*%
%ADD19R,0.02960X0.00080*%
%ADD20R,0.02160X0.00080*%
%ADD21R,0.02480X0.00080*%
%ADD22R,0.02000X0.00080*%
%ADD23R,0.01600X0.00080*%
%ADD24R,0.01680X0.00080*%
%ADD25R,0.01440X0.00080*%
%ADD26R,0.01360X0.00080*%
%ADD27R,0.01280X0.00080*%
%ADD28R,0.01200X0.00080*%
%ADD29R,0.01120X0.00080*%
%ADD30R,0.03760X0.00080*%
%ADD31R,0.01040X0.00080*%
%ADD32R,0.05040X0.00080*%
%ADD33R,0.00960X0.00080*%
%ADD34R,0.01760X0.00080*%
%ADD35R,0.00880X0.00080*%
%ADD36R,0.00800X0.00080*%
%ADD37R,0.00720X0.00080*%
%ADD38R,0.00720X0.00080*%
%ADD39R,0.00640X0.00080*%
%ADD40R,0.00640X0.00080*%
%ADD41R,0.00560X0.00080*%
%ADD42R,0.00480X0.00080*%
%ADD43R,0.00160X0.00080*%
%ADD44R,0.02560X0.00080*%
%ADD45R,0.00320X0.00080*%
%ADD46R,0.03520X0.00080*%
%ADD47R,0.00400X0.00080*%
%ADD48R,0.02320X0.00080*%
%ADD49R,0.00240X0.00080*%
%ADD50R,0.02080X0.00080*%
%ADD51R,0.01920X0.00080*%
%ADD52R,0.01120X0.00080*%
%ADD53R,0.00240X0.00080*%
%ADD54R,0.00320X0.00080*%
%ADD55R,0.01920X0.00080*%
%ADD56R,0.02240X0.00080*%
%ADD57R,0.02400X0.00080*%
%ADD58R,0.02640X0.00080*%
%ADD59R,0.02800X0.00080*%
%ADD60R,0.03120X0.00080*%
%ADD61R,0.03280X0.00080*%
%ADD62R,0.03360X0.00080*%
%ADD63R,0.03680X0.00080*%
%ADD64R,0.03840X0.00080*%
%ADD65R,0.04080X0.00080*%
%ADD66R,0.04160X0.00080*%
%ADD67R,0.04320X0.00080*%
%ADD68R,0.04480X0.00080*%
%ADD69R,0.04560X0.00080*%
%ADD70R,0.04640X0.00080*%
%ADD71R,0.04720X0.00080*%
%ADD72R,0.05200X0.00080*%
%ADD73R,0.04960X0.00080*%
%ADD74R,0.04800X0.00080*%
%ADD75R,0.04240X0.00080*%
%ADD76R,0.03920X0.00080*%
%ADD77R,0.05440X0.00080*%
%ADD78R,0.01040X0.00080*%
%ADD79R,0.03440X0.00080*%
%ADD80R,0.04400X0.00080*%
%ADD81R,0.04880X0.00080*%
%ADD82R,0.01840X0.00080*%
%ADD83R,0.01520X0.00080*%
%ADD84R,0.01520X0.00080*%
%ADD85R,0.01440X0.00080*%
%ADD86R,0.03120X0.00080*%
%ADD87R,0.03600X0.00080*%
%ADD88R,0.03920X0.00080*%
%ADD89R,0.02880X0.00080*%
%ADD90R,0.04240X0.00080*%
%ADD91R,0.03200X0.00080*%
%ADD92R,0.05120X0.00080*%
%ADD93R,0.04720X0.00080*%
%ADD94R,0.05360X0.00080*%
%ADD95R,0.03840X0.00080*%
%ADD96R,0.03520X0.00080*%
%ADD97R,0.02320X0.00080*%
%ADD98C,0.02400*%
D10*
X0060050Y0034580D02*
X0060052Y0034749D01*
X0060058Y0034918D01*
X0060069Y0035087D01*
X0060083Y0035255D01*
X0060102Y0035423D01*
X0060125Y0035591D01*
X0060151Y0035758D01*
X0060182Y0035924D01*
X0060217Y0036090D01*
X0060256Y0036254D01*
X0060300Y0036418D01*
X0060347Y0036580D01*
X0060398Y0036741D01*
X0060453Y0036901D01*
X0060512Y0037060D01*
X0060574Y0037217D01*
X0060641Y0037372D01*
X0060712Y0037526D01*
X0060786Y0037678D01*
X0060864Y0037828D01*
X0060945Y0037976D01*
X0061030Y0038122D01*
X0061119Y0038266D01*
X0061211Y0038408D01*
X0061307Y0038547D01*
X0061406Y0038684D01*
X0061508Y0038819D01*
X0061614Y0038951D01*
X0061723Y0039080D01*
X0061835Y0039207D01*
X0061950Y0039331D01*
X0062068Y0039452D01*
X0062189Y0039570D01*
X0062313Y0039685D01*
X0062440Y0039797D01*
X0062569Y0039906D01*
X0062701Y0040012D01*
X0062836Y0040114D01*
X0062973Y0040213D01*
X0063112Y0040309D01*
X0063254Y0040401D01*
X0063398Y0040490D01*
X0063544Y0040575D01*
X0063692Y0040656D01*
X0063842Y0040734D01*
X0063994Y0040808D01*
X0064148Y0040879D01*
X0064303Y0040946D01*
X0064460Y0041008D01*
X0064619Y0041067D01*
X0064779Y0041122D01*
X0064940Y0041173D01*
X0065102Y0041220D01*
X0065266Y0041264D01*
X0065430Y0041303D01*
X0065596Y0041338D01*
X0065762Y0041369D01*
X0065929Y0041395D01*
X0066097Y0041418D01*
X0066265Y0041437D01*
X0066433Y0041451D01*
X0066602Y0041462D01*
X0066771Y0041468D01*
X0066940Y0041470D01*
X0067109Y0041468D01*
X0067278Y0041462D01*
X0067447Y0041451D01*
X0067615Y0041437D01*
X0067783Y0041418D01*
X0067951Y0041395D01*
X0068118Y0041369D01*
X0068284Y0041338D01*
X0068450Y0041303D01*
X0068614Y0041264D01*
X0068778Y0041220D01*
X0068940Y0041173D01*
X0069101Y0041122D01*
X0069261Y0041067D01*
X0069420Y0041008D01*
X0069577Y0040946D01*
X0069732Y0040879D01*
X0069886Y0040808D01*
X0070038Y0040734D01*
X0070188Y0040656D01*
X0070336Y0040575D01*
X0070482Y0040490D01*
X0070626Y0040401D01*
X0070768Y0040309D01*
X0070907Y0040213D01*
X0071044Y0040114D01*
X0071179Y0040012D01*
X0071311Y0039906D01*
X0071440Y0039797D01*
X0071567Y0039685D01*
X0071691Y0039570D01*
X0071812Y0039452D01*
X0071930Y0039331D01*
X0072045Y0039207D01*
X0072157Y0039080D01*
X0072266Y0038951D01*
X0072372Y0038819D01*
X0072474Y0038684D01*
X0072573Y0038547D01*
X0072669Y0038408D01*
X0072761Y0038266D01*
X0072850Y0038122D01*
X0072935Y0037976D01*
X0073016Y0037828D01*
X0073094Y0037678D01*
X0073168Y0037526D01*
X0073239Y0037372D01*
X0073306Y0037217D01*
X0073368Y0037060D01*
X0073427Y0036901D01*
X0073482Y0036741D01*
X0073533Y0036580D01*
X0073580Y0036418D01*
X0073624Y0036254D01*
X0073663Y0036090D01*
X0073698Y0035924D01*
X0073729Y0035758D01*
X0073755Y0035591D01*
X0073778Y0035423D01*
X0073797Y0035255D01*
X0073811Y0035087D01*
X0073822Y0034918D01*
X0073828Y0034749D01*
X0073830Y0034580D01*
X0073828Y0034411D01*
X0073822Y0034242D01*
X0073811Y0034073D01*
X0073797Y0033905D01*
X0073778Y0033737D01*
X0073755Y0033569D01*
X0073729Y0033402D01*
X0073698Y0033236D01*
X0073663Y0033070D01*
X0073624Y0032906D01*
X0073580Y0032742D01*
X0073533Y0032580D01*
X0073482Y0032419D01*
X0073427Y0032259D01*
X0073368Y0032100D01*
X0073306Y0031943D01*
X0073239Y0031788D01*
X0073168Y0031634D01*
X0073094Y0031482D01*
X0073016Y0031332D01*
X0072935Y0031184D01*
X0072850Y0031038D01*
X0072761Y0030894D01*
X0072669Y0030752D01*
X0072573Y0030613D01*
X0072474Y0030476D01*
X0072372Y0030341D01*
X0072266Y0030209D01*
X0072157Y0030080D01*
X0072045Y0029953D01*
X0071930Y0029829D01*
X0071812Y0029708D01*
X0071691Y0029590D01*
X0071567Y0029475D01*
X0071440Y0029363D01*
X0071311Y0029254D01*
X0071179Y0029148D01*
X0071044Y0029046D01*
X0070907Y0028947D01*
X0070768Y0028851D01*
X0070626Y0028759D01*
X0070482Y0028670D01*
X0070336Y0028585D01*
X0070188Y0028504D01*
X0070038Y0028426D01*
X0069886Y0028352D01*
X0069732Y0028281D01*
X0069577Y0028214D01*
X0069420Y0028152D01*
X0069261Y0028093D01*
X0069101Y0028038D01*
X0068940Y0027987D01*
X0068778Y0027940D01*
X0068614Y0027896D01*
X0068450Y0027857D01*
X0068284Y0027822D01*
X0068118Y0027791D01*
X0067951Y0027765D01*
X0067783Y0027742D01*
X0067615Y0027723D01*
X0067447Y0027709D01*
X0067278Y0027698D01*
X0067109Y0027692D01*
X0066940Y0027690D01*
X0066771Y0027692D01*
X0066602Y0027698D01*
X0066433Y0027709D01*
X0066265Y0027723D01*
X0066097Y0027742D01*
X0065929Y0027765D01*
X0065762Y0027791D01*
X0065596Y0027822D01*
X0065430Y0027857D01*
X0065266Y0027896D01*
X0065102Y0027940D01*
X0064940Y0027987D01*
X0064779Y0028038D01*
X0064619Y0028093D01*
X0064460Y0028152D01*
X0064303Y0028214D01*
X0064148Y0028281D01*
X0063994Y0028352D01*
X0063842Y0028426D01*
X0063692Y0028504D01*
X0063544Y0028585D01*
X0063398Y0028670D01*
X0063254Y0028759D01*
X0063112Y0028851D01*
X0062973Y0028947D01*
X0062836Y0029046D01*
X0062701Y0029148D01*
X0062569Y0029254D01*
X0062440Y0029363D01*
X0062313Y0029475D01*
X0062189Y0029590D01*
X0062068Y0029708D01*
X0061950Y0029829D01*
X0061835Y0029953D01*
X0061723Y0030080D01*
X0061614Y0030209D01*
X0061508Y0030341D01*
X0061406Y0030476D01*
X0061307Y0030613D01*
X0061211Y0030752D01*
X0061119Y0030894D01*
X0061030Y0031038D01*
X0060945Y0031184D01*
X0060864Y0031332D01*
X0060786Y0031482D01*
X0060712Y0031634D01*
X0060641Y0031788D01*
X0060574Y0031943D01*
X0060512Y0032100D01*
X0060453Y0032259D01*
X0060398Y0032419D01*
X0060347Y0032580D01*
X0060300Y0032742D01*
X0060256Y0032906D01*
X0060217Y0033070D01*
X0060182Y0033236D01*
X0060151Y0033402D01*
X0060125Y0033569D01*
X0060102Y0033737D01*
X0060083Y0033905D01*
X0060069Y0034073D01*
X0060058Y0034242D01*
X0060052Y0034411D01*
X0060050Y0034580D01*
X0285000Y0352100D02*
X0285002Y0352261D01*
X0285008Y0352421D01*
X0285018Y0352582D01*
X0285032Y0352742D01*
X0285050Y0352902D01*
X0285071Y0353061D01*
X0285097Y0353220D01*
X0285127Y0353378D01*
X0285160Y0353535D01*
X0285198Y0353692D01*
X0285239Y0353847D01*
X0285284Y0354001D01*
X0285333Y0354154D01*
X0285386Y0354306D01*
X0285442Y0354457D01*
X0285503Y0354606D01*
X0285566Y0354754D01*
X0285634Y0354900D01*
X0285705Y0355044D01*
X0285779Y0355186D01*
X0285857Y0355327D01*
X0285939Y0355465D01*
X0286024Y0355602D01*
X0286112Y0355736D01*
X0286204Y0355868D01*
X0286299Y0355998D01*
X0286397Y0356126D01*
X0286498Y0356251D01*
X0286602Y0356373D01*
X0286709Y0356493D01*
X0286819Y0356610D01*
X0286932Y0356725D01*
X0287048Y0356836D01*
X0287167Y0356945D01*
X0287288Y0357050D01*
X0287412Y0357153D01*
X0287538Y0357253D01*
X0287666Y0357349D01*
X0287797Y0357442D01*
X0287931Y0357532D01*
X0288066Y0357619D01*
X0288204Y0357702D01*
X0288343Y0357782D01*
X0288485Y0357858D01*
X0288628Y0357931D01*
X0288773Y0358000D01*
X0288920Y0358066D01*
X0289068Y0358128D01*
X0289218Y0358186D01*
X0289369Y0358241D01*
X0289522Y0358292D01*
X0289676Y0358339D01*
X0289831Y0358382D01*
X0289987Y0358421D01*
X0290143Y0358457D01*
X0290301Y0358488D01*
X0290459Y0358516D01*
X0290618Y0358540D01*
X0290778Y0358560D01*
X0290938Y0358576D01*
X0291098Y0358588D01*
X0291259Y0358596D01*
X0291420Y0358600D01*
X0291580Y0358600D01*
X0291741Y0358596D01*
X0291902Y0358588D01*
X0292062Y0358576D01*
X0292222Y0358560D01*
X0292382Y0358540D01*
X0292541Y0358516D01*
X0292699Y0358488D01*
X0292857Y0358457D01*
X0293013Y0358421D01*
X0293169Y0358382D01*
X0293324Y0358339D01*
X0293478Y0358292D01*
X0293631Y0358241D01*
X0293782Y0358186D01*
X0293932Y0358128D01*
X0294080Y0358066D01*
X0294227Y0358000D01*
X0294372Y0357931D01*
X0294515Y0357858D01*
X0294657Y0357782D01*
X0294796Y0357702D01*
X0294934Y0357619D01*
X0295069Y0357532D01*
X0295203Y0357442D01*
X0295334Y0357349D01*
X0295462Y0357253D01*
X0295588Y0357153D01*
X0295712Y0357050D01*
X0295833Y0356945D01*
X0295952Y0356836D01*
X0296068Y0356725D01*
X0296181Y0356610D01*
X0296291Y0356493D01*
X0296398Y0356373D01*
X0296502Y0356251D01*
X0296603Y0356126D01*
X0296701Y0355998D01*
X0296796Y0355868D01*
X0296888Y0355736D01*
X0296976Y0355602D01*
X0297061Y0355465D01*
X0297143Y0355327D01*
X0297221Y0355186D01*
X0297295Y0355044D01*
X0297366Y0354900D01*
X0297434Y0354754D01*
X0297497Y0354606D01*
X0297558Y0354457D01*
X0297614Y0354306D01*
X0297667Y0354154D01*
X0297716Y0354001D01*
X0297761Y0353847D01*
X0297802Y0353692D01*
X0297840Y0353535D01*
X0297873Y0353378D01*
X0297903Y0353220D01*
X0297929Y0353061D01*
X0297950Y0352902D01*
X0297968Y0352742D01*
X0297982Y0352582D01*
X0297992Y0352421D01*
X0297998Y0352261D01*
X0298000Y0352100D01*
X0297998Y0351939D01*
X0297992Y0351779D01*
X0297982Y0351618D01*
X0297968Y0351458D01*
X0297950Y0351298D01*
X0297929Y0351139D01*
X0297903Y0350980D01*
X0297873Y0350822D01*
X0297840Y0350665D01*
X0297802Y0350508D01*
X0297761Y0350353D01*
X0297716Y0350199D01*
X0297667Y0350046D01*
X0297614Y0349894D01*
X0297558Y0349743D01*
X0297497Y0349594D01*
X0297434Y0349446D01*
X0297366Y0349300D01*
X0297295Y0349156D01*
X0297221Y0349014D01*
X0297143Y0348873D01*
X0297061Y0348735D01*
X0296976Y0348598D01*
X0296888Y0348464D01*
X0296796Y0348332D01*
X0296701Y0348202D01*
X0296603Y0348074D01*
X0296502Y0347949D01*
X0296398Y0347827D01*
X0296291Y0347707D01*
X0296181Y0347590D01*
X0296068Y0347475D01*
X0295952Y0347364D01*
X0295833Y0347255D01*
X0295712Y0347150D01*
X0295588Y0347047D01*
X0295462Y0346947D01*
X0295334Y0346851D01*
X0295203Y0346758D01*
X0295069Y0346668D01*
X0294934Y0346581D01*
X0294796Y0346498D01*
X0294657Y0346418D01*
X0294515Y0346342D01*
X0294372Y0346269D01*
X0294227Y0346200D01*
X0294080Y0346134D01*
X0293932Y0346072D01*
X0293782Y0346014D01*
X0293631Y0345959D01*
X0293478Y0345908D01*
X0293324Y0345861D01*
X0293169Y0345818D01*
X0293013Y0345779D01*
X0292857Y0345743D01*
X0292699Y0345712D01*
X0292541Y0345684D01*
X0292382Y0345660D01*
X0292222Y0345640D01*
X0292062Y0345624D01*
X0291902Y0345612D01*
X0291741Y0345604D01*
X0291580Y0345600D01*
X0291420Y0345600D01*
X0291259Y0345604D01*
X0291098Y0345612D01*
X0290938Y0345624D01*
X0290778Y0345640D01*
X0290618Y0345660D01*
X0290459Y0345684D01*
X0290301Y0345712D01*
X0290143Y0345743D01*
X0289987Y0345779D01*
X0289831Y0345818D01*
X0289676Y0345861D01*
X0289522Y0345908D01*
X0289369Y0345959D01*
X0289218Y0346014D01*
X0289068Y0346072D01*
X0288920Y0346134D01*
X0288773Y0346200D01*
X0288628Y0346269D01*
X0288485Y0346342D01*
X0288343Y0346418D01*
X0288204Y0346498D01*
X0288066Y0346581D01*
X0287931Y0346668D01*
X0287797Y0346758D01*
X0287666Y0346851D01*
X0287538Y0346947D01*
X0287412Y0347047D01*
X0287288Y0347150D01*
X0287167Y0347255D01*
X0287048Y0347364D01*
X0286932Y0347475D01*
X0286819Y0347590D01*
X0286709Y0347707D01*
X0286602Y0347827D01*
X0286498Y0347949D01*
X0286397Y0348074D01*
X0286299Y0348202D01*
X0286204Y0348332D01*
X0286112Y0348464D01*
X0286024Y0348598D01*
X0285939Y0348735D01*
X0285857Y0348873D01*
X0285779Y0349014D01*
X0285705Y0349156D01*
X0285634Y0349300D01*
X0285566Y0349446D01*
X0285503Y0349594D01*
X0285442Y0349743D01*
X0285386Y0349894D01*
X0285333Y0350046D01*
X0285284Y0350199D01*
X0285239Y0350353D01*
X0285198Y0350508D01*
X0285160Y0350665D01*
X0285127Y0350822D01*
X0285097Y0350980D01*
X0285071Y0351139D01*
X0285050Y0351298D01*
X0285032Y0351458D01*
X0285018Y0351618D01*
X0285008Y0351779D01*
X0285002Y0351939D01*
X0285000Y0352100D01*
X0425570Y0403310D02*
X0425572Y0403479D01*
X0425578Y0403648D01*
X0425589Y0403817D01*
X0425603Y0403985D01*
X0425622Y0404153D01*
X0425645Y0404321D01*
X0425671Y0404488D01*
X0425702Y0404654D01*
X0425737Y0404820D01*
X0425776Y0404984D01*
X0425820Y0405148D01*
X0425867Y0405310D01*
X0425918Y0405471D01*
X0425973Y0405631D01*
X0426032Y0405790D01*
X0426094Y0405947D01*
X0426161Y0406102D01*
X0426232Y0406256D01*
X0426306Y0406408D01*
X0426384Y0406558D01*
X0426465Y0406706D01*
X0426550Y0406852D01*
X0426639Y0406996D01*
X0426731Y0407138D01*
X0426827Y0407277D01*
X0426926Y0407414D01*
X0427028Y0407549D01*
X0427134Y0407681D01*
X0427243Y0407810D01*
X0427355Y0407937D01*
X0427470Y0408061D01*
X0427588Y0408182D01*
X0427709Y0408300D01*
X0427833Y0408415D01*
X0427960Y0408527D01*
X0428089Y0408636D01*
X0428221Y0408742D01*
X0428356Y0408844D01*
X0428493Y0408943D01*
X0428632Y0409039D01*
X0428774Y0409131D01*
X0428918Y0409220D01*
X0429064Y0409305D01*
X0429212Y0409386D01*
X0429362Y0409464D01*
X0429514Y0409538D01*
X0429668Y0409609D01*
X0429823Y0409676D01*
X0429980Y0409738D01*
X0430139Y0409797D01*
X0430299Y0409852D01*
X0430460Y0409903D01*
X0430622Y0409950D01*
X0430786Y0409994D01*
X0430950Y0410033D01*
X0431116Y0410068D01*
X0431282Y0410099D01*
X0431449Y0410125D01*
X0431617Y0410148D01*
X0431785Y0410167D01*
X0431953Y0410181D01*
X0432122Y0410192D01*
X0432291Y0410198D01*
X0432460Y0410200D01*
X0432629Y0410198D01*
X0432798Y0410192D01*
X0432967Y0410181D01*
X0433135Y0410167D01*
X0433303Y0410148D01*
X0433471Y0410125D01*
X0433638Y0410099D01*
X0433804Y0410068D01*
X0433970Y0410033D01*
X0434134Y0409994D01*
X0434298Y0409950D01*
X0434460Y0409903D01*
X0434621Y0409852D01*
X0434781Y0409797D01*
X0434940Y0409738D01*
X0435097Y0409676D01*
X0435252Y0409609D01*
X0435406Y0409538D01*
X0435558Y0409464D01*
X0435708Y0409386D01*
X0435856Y0409305D01*
X0436002Y0409220D01*
X0436146Y0409131D01*
X0436288Y0409039D01*
X0436427Y0408943D01*
X0436564Y0408844D01*
X0436699Y0408742D01*
X0436831Y0408636D01*
X0436960Y0408527D01*
X0437087Y0408415D01*
X0437211Y0408300D01*
X0437332Y0408182D01*
X0437450Y0408061D01*
X0437565Y0407937D01*
X0437677Y0407810D01*
X0437786Y0407681D01*
X0437892Y0407549D01*
X0437994Y0407414D01*
X0438093Y0407277D01*
X0438189Y0407138D01*
X0438281Y0406996D01*
X0438370Y0406852D01*
X0438455Y0406706D01*
X0438536Y0406558D01*
X0438614Y0406408D01*
X0438688Y0406256D01*
X0438759Y0406102D01*
X0438826Y0405947D01*
X0438888Y0405790D01*
X0438947Y0405631D01*
X0439002Y0405471D01*
X0439053Y0405310D01*
X0439100Y0405148D01*
X0439144Y0404984D01*
X0439183Y0404820D01*
X0439218Y0404654D01*
X0439249Y0404488D01*
X0439275Y0404321D01*
X0439298Y0404153D01*
X0439317Y0403985D01*
X0439331Y0403817D01*
X0439342Y0403648D01*
X0439348Y0403479D01*
X0439350Y0403310D01*
X0439348Y0403141D01*
X0439342Y0402972D01*
X0439331Y0402803D01*
X0439317Y0402635D01*
X0439298Y0402467D01*
X0439275Y0402299D01*
X0439249Y0402132D01*
X0439218Y0401966D01*
X0439183Y0401800D01*
X0439144Y0401636D01*
X0439100Y0401472D01*
X0439053Y0401310D01*
X0439002Y0401149D01*
X0438947Y0400989D01*
X0438888Y0400830D01*
X0438826Y0400673D01*
X0438759Y0400518D01*
X0438688Y0400364D01*
X0438614Y0400212D01*
X0438536Y0400062D01*
X0438455Y0399914D01*
X0438370Y0399768D01*
X0438281Y0399624D01*
X0438189Y0399482D01*
X0438093Y0399343D01*
X0437994Y0399206D01*
X0437892Y0399071D01*
X0437786Y0398939D01*
X0437677Y0398810D01*
X0437565Y0398683D01*
X0437450Y0398559D01*
X0437332Y0398438D01*
X0437211Y0398320D01*
X0437087Y0398205D01*
X0436960Y0398093D01*
X0436831Y0397984D01*
X0436699Y0397878D01*
X0436564Y0397776D01*
X0436427Y0397677D01*
X0436288Y0397581D01*
X0436146Y0397489D01*
X0436002Y0397400D01*
X0435856Y0397315D01*
X0435708Y0397234D01*
X0435558Y0397156D01*
X0435406Y0397082D01*
X0435252Y0397011D01*
X0435097Y0396944D01*
X0434940Y0396882D01*
X0434781Y0396823D01*
X0434621Y0396768D01*
X0434460Y0396717D01*
X0434298Y0396670D01*
X0434134Y0396626D01*
X0433970Y0396587D01*
X0433804Y0396552D01*
X0433638Y0396521D01*
X0433471Y0396495D01*
X0433303Y0396472D01*
X0433135Y0396453D01*
X0432967Y0396439D01*
X0432798Y0396428D01*
X0432629Y0396422D01*
X0432460Y0396420D01*
X0432291Y0396422D01*
X0432122Y0396428D01*
X0431953Y0396439D01*
X0431785Y0396453D01*
X0431617Y0396472D01*
X0431449Y0396495D01*
X0431282Y0396521D01*
X0431116Y0396552D01*
X0430950Y0396587D01*
X0430786Y0396626D01*
X0430622Y0396670D01*
X0430460Y0396717D01*
X0430299Y0396768D01*
X0430139Y0396823D01*
X0429980Y0396882D01*
X0429823Y0396944D01*
X0429668Y0397011D01*
X0429514Y0397082D01*
X0429362Y0397156D01*
X0429212Y0397234D01*
X0429064Y0397315D01*
X0428918Y0397400D01*
X0428774Y0397489D01*
X0428632Y0397581D01*
X0428493Y0397677D01*
X0428356Y0397776D01*
X0428221Y0397878D01*
X0428089Y0397984D01*
X0427960Y0398093D01*
X0427833Y0398205D01*
X0427709Y0398320D01*
X0427588Y0398438D01*
X0427470Y0398559D01*
X0427355Y0398683D01*
X0427243Y0398810D01*
X0427134Y0398939D01*
X0427028Y0399071D01*
X0426926Y0399206D01*
X0426827Y0399343D01*
X0426731Y0399482D01*
X0426639Y0399624D01*
X0426550Y0399768D01*
X0426465Y0399914D01*
X0426384Y0400062D01*
X0426306Y0400212D01*
X0426232Y0400364D01*
X0426161Y0400518D01*
X0426094Y0400673D01*
X0426032Y0400830D01*
X0425973Y0400989D01*
X0425918Y0401149D01*
X0425867Y0401310D01*
X0425820Y0401472D01*
X0425776Y0401636D01*
X0425737Y0401800D01*
X0425702Y0401966D01*
X0425671Y0402132D01*
X0425645Y0402299D01*
X0425622Y0402467D01*
X0425603Y0402635D01*
X0425589Y0402803D01*
X0425578Y0402972D01*
X0425572Y0403141D01*
X0425570Y0403310D01*
X0060770Y0402910D02*
X0060772Y0403079D01*
X0060778Y0403248D01*
X0060789Y0403417D01*
X0060803Y0403585D01*
X0060822Y0403753D01*
X0060845Y0403921D01*
X0060871Y0404088D01*
X0060902Y0404254D01*
X0060937Y0404420D01*
X0060976Y0404584D01*
X0061020Y0404748D01*
X0061067Y0404910D01*
X0061118Y0405071D01*
X0061173Y0405231D01*
X0061232Y0405390D01*
X0061294Y0405547D01*
X0061361Y0405702D01*
X0061432Y0405856D01*
X0061506Y0406008D01*
X0061584Y0406158D01*
X0061665Y0406306D01*
X0061750Y0406452D01*
X0061839Y0406596D01*
X0061931Y0406738D01*
X0062027Y0406877D01*
X0062126Y0407014D01*
X0062228Y0407149D01*
X0062334Y0407281D01*
X0062443Y0407410D01*
X0062555Y0407537D01*
X0062670Y0407661D01*
X0062788Y0407782D01*
X0062909Y0407900D01*
X0063033Y0408015D01*
X0063160Y0408127D01*
X0063289Y0408236D01*
X0063421Y0408342D01*
X0063556Y0408444D01*
X0063693Y0408543D01*
X0063832Y0408639D01*
X0063974Y0408731D01*
X0064118Y0408820D01*
X0064264Y0408905D01*
X0064412Y0408986D01*
X0064562Y0409064D01*
X0064714Y0409138D01*
X0064868Y0409209D01*
X0065023Y0409276D01*
X0065180Y0409338D01*
X0065339Y0409397D01*
X0065499Y0409452D01*
X0065660Y0409503D01*
X0065822Y0409550D01*
X0065986Y0409594D01*
X0066150Y0409633D01*
X0066316Y0409668D01*
X0066482Y0409699D01*
X0066649Y0409725D01*
X0066817Y0409748D01*
X0066985Y0409767D01*
X0067153Y0409781D01*
X0067322Y0409792D01*
X0067491Y0409798D01*
X0067660Y0409800D01*
X0067829Y0409798D01*
X0067998Y0409792D01*
X0068167Y0409781D01*
X0068335Y0409767D01*
X0068503Y0409748D01*
X0068671Y0409725D01*
X0068838Y0409699D01*
X0069004Y0409668D01*
X0069170Y0409633D01*
X0069334Y0409594D01*
X0069498Y0409550D01*
X0069660Y0409503D01*
X0069821Y0409452D01*
X0069981Y0409397D01*
X0070140Y0409338D01*
X0070297Y0409276D01*
X0070452Y0409209D01*
X0070606Y0409138D01*
X0070758Y0409064D01*
X0070908Y0408986D01*
X0071056Y0408905D01*
X0071202Y0408820D01*
X0071346Y0408731D01*
X0071488Y0408639D01*
X0071627Y0408543D01*
X0071764Y0408444D01*
X0071899Y0408342D01*
X0072031Y0408236D01*
X0072160Y0408127D01*
X0072287Y0408015D01*
X0072411Y0407900D01*
X0072532Y0407782D01*
X0072650Y0407661D01*
X0072765Y0407537D01*
X0072877Y0407410D01*
X0072986Y0407281D01*
X0073092Y0407149D01*
X0073194Y0407014D01*
X0073293Y0406877D01*
X0073389Y0406738D01*
X0073481Y0406596D01*
X0073570Y0406452D01*
X0073655Y0406306D01*
X0073736Y0406158D01*
X0073814Y0406008D01*
X0073888Y0405856D01*
X0073959Y0405702D01*
X0074026Y0405547D01*
X0074088Y0405390D01*
X0074147Y0405231D01*
X0074202Y0405071D01*
X0074253Y0404910D01*
X0074300Y0404748D01*
X0074344Y0404584D01*
X0074383Y0404420D01*
X0074418Y0404254D01*
X0074449Y0404088D01*
X0074475Y0403921D01*
X0074498Y0403753D01*
X0074517Y0403585D01*
X0074531Y0403417D01*
X0074542Y0403248D01*
X0074548Y0403079D01*
X0074550Y0402910D01*
X0074548Y0402741D01*
X0074542Y0402572D01*
X0074531Y0402403D01*
X0074517Y0402235D01*
X0074498Y0402067D01*
X0074475Y0401899D01*
X0074449Y0401732D01*
X0074418Y0401566D01*
X0074383Y0401400D01*
X0074344Y0401236D01*
X0074300Y0401072D01*
X0074253Y0400910D01*
X0074202Y0400749D01*
X0074147Y0400589D01*
X0074088Y0400430D01*
X0074026Y0400273D01*
X0073959Y0400118D01*
X0073888Y0399964D01*
X0073814Y0399812D01*
X0073736Y0399662D01*
X0073655Y0399514D01*
X0073570Y0399368D01*
X0073481Y0399224D01*
X0073389Y0399082D01*
X0073293Y0398943D01*
X0073194Y0398806D01*
X0073092Y0398671D01*
X0072986Y0398539D01*
X0072877Y0398410D01*
X0072765Y0398283D01*
X0072650Y0398159D01*
X0072532Y0398038D01*
X0072411Y0397920D01*
X0072287Y0397805D01*
X0072160Y0397693D01*
X0072031Y0397584D01*
X0071899Y0397478D01*
X0071764Y0397376D01*
X0071627Y0397277D01*
X0071488Y0397181D01*
X0071346Y0397089D01*
X0071202Y0397000D01*
X0071056Y0396915D01*
X0070908Y0396834D01*
X0070758Y0396756D01*
X0070606Y0396682D01*
X0070452Y0396611D01*
X0070297Y0396544D01*
X0070140Y0396482D01*
X0069981Y0396423D01*
X0069821Y0396368D01*
X0069660Y0396317D01*
X0069498Y0396270D01*
X0069334Y0396226D01*
X0069170Y0396187D01*
X0069004Y0396152D01*
X0068838Y0396121D01*
X0068671Y0396095D01*
X0068503Y0396072D01*
X0068335Y0396053D01*
X0068167Y0396039D01*
X0067998Y0396028D01*
X0067829Y0396022D01*
X0067660Y0396020D01*
X0067491Y0396022D01*
X0067322Y0396028D01*
X0067153Y0396039D01*
X0066985Y0396053D01*
X0066817Y0396072D01*
X0066649Y0396095D01*
X0066482Y0396121D01*
X0066316Y0396152D01*
X0066150Y0396187D01*
X0065986Y0396226D01*
X0065822Y0396270D01*
X0065660Y0396317D01*
X0065499Y0396368D01*
X0065339Y0396423D01*
X0065180Y0396482D01*
X0065023Y0396544D01*
X0064868Y0396611D01*
X0064714Y0396682D01*
X0064562Y0396756D01*
X0064412Y0396834D01*
X0064264Y0396915D01*
X0064118Y0397000D01*
X0063974Y0397089D01*
X0063832Y0397181D01*
X0063693Y0397277D01*
X0063556Y0397376D01*
X0063421Y0397478D01*
X0063289Y0397584D01*
X0063160Y0397693D01*
X0063033Y0397805D01*
X0062909Y0397920D01*
X0062788Y0398038D01*
X0062670Y0398159D01*
X0062555Y0398283D01*
X0062443Y0398410D01*
X0062334Y0398539D01*
X0062228Y0398671D01*
X0062126Y0398806D01*
X0062027Y0398943D01*
X0061931Y0399082D01*
X0061839Y0399224D01*
X0061750Y0399368D01*
X0061665Y0399514D01*
X0061584Y0399662D01*
X0061506Y0399812D01*
X0061432Y0399964D01*
X0061361Y0400118D01*
X0061294Y0400273D01*
X0061232Y0400430D01*
X0061173Y0400589D01*
X0061118Y0400749D01*
X0061067Y0400910D01*
X0061020Y0401072D01*
X0060976Y0401236D01*
X0060937Y0401400D01*
X0060902Y0401566D01*
X0060871Y0401732D01*
X0060845Y0401899D01*
X0060822Y0402067D01*
X0060803Y0402235D01*
X0060789Y0402403D01*
X0060778Y0402572D01*
X0060772Y0402741D01*
X0060770Y0402910D01*
X0428370Y0034710D02*
X0428372Y0034879D01*
X0428378Y0035048D01*
X0428389Y0035217D01*
X0428403Y0035385D01*
X0428422Y0035553D01*
X0428445Y0035721D01*
X0428471Y0035888D01*
X0428502Y0036054D01*
X0428537Y0036220D01*
X0428576Y0036384D01*
X0428620Y0036548D01*
X0428667Y0036710D01*
X0428718Y0036871D01*
X0428773Y0037031D01*
X0428832Y0037190D01*
X0428894Y0037347D01*
X0428961Y0037502D01*
X0429032Y0037656D01*
X0429106Y0037808D01*
X0429184Y0037958D01*
X0429265Y0038106D01*
X0429350Y0038252D01*
X0429439Y0038396D01*
X0429531Y0038538D01*
X0429627Y0038677D01*
X0429726Y0038814D01*
X0429828Y0038949D01*
X0429934Y0039081D01*
X0430043Y0039210D01*
X0430155Y0039337D01*
X0430270Y0039461D01*
X0430388Y0039582D01*
X0430509Y0039700D01*
X0430633Y0039815D01*
X0430760Y0039927D01*
X0430889Y0040036D01*
X0431021Y0040142D01*
X0431156Y0040244D01*
X0431293Y0040343D01*
X0431432Y0040439D01*
X0431574Y0040531D01*
X0431718Y0040620D01*
X0431864Y0040705D01*
X0432012Y0040786D01*
X0432162Y0040864D01*
X0432314Y0040938D01*
X0432468Y0041009D01*
X0432623Y0041076D01*
X0432780Y0041138D01*
X0432939Y0041197D01*
X0433099Y0041252D01*
X0433260Y0041303D01*
X0433422Y0041350D01*
X0433586Y0041394D01*
X0433750Y0041433D01*
X0433916Y0041468D01*
X0434082Y0041499D01*
X0434249Y0041525D01*
X0434417Y0041548D01*
X0434585Y0041567D01*
X0434753Y0041581D01*
X0434922Y0041592D01*
X0435091Y0041598D01*
X0435260Y0041600D01*
X0435429Y0041598D01*
X0435598Y0041592D01*
X0435767Y0041581D01*
X0435935Y0041567D01*
X0436103Y0041548D01*
X0436271Y0041525D01*
X0436438Y0041499D01*
X0436604Y0041468D01*
X0436770Y0041433D01*
X0436934Y0041394D01*
X0437098Y0041350D01*
X0437260Y0041303D01*
X0437421Y0041252D01*
X0437581Y0041197D01*
X0437740Y0041138D01*
X0437897Y0041076D01*
X0438052Y0041009D01*
X0438206Y0040938D01*
X0438358Y0040864D01*
X0438508Y0040786D01*
X0438656Y0040705D01*
X0438802Y0040620D01*
X0438946Y0040531D01*
X0439088Y0040439D01*
X0439227Y0040343D01*
X0439364Y0040244D01*
X0439499Y0040142D01*
X0439631Y0040036D01*
X0439760Y0039927D01*
X0439887Y0039815D01*
X0440011Y0039700D01*
X0440132Y0039582D01*
X0440250Y0039461D01*
X0440365Y0039337D01*
X0440477Y0039210D01*
X0440586Y0039081D01*
X0440692Y0038949D01*
X0440794Y0038814D01*
X0440893Y0038677D01*
X0440989Y0038538D01*
X0441081Y0038396D01*
X0441170Y0038252D01*
X0441255Y0038106D01*
X0441336Y0037958D01*
X0441414Y0037808D01*
X0441488Y0037656D01*
X0441559Y0037502D01*
X0441626Y0037347D01*
X0441688Y0037190D01*
X0441747Y0037031D01*
X0441802Y0036871D01*
X0441853Y0036710D01*
X0441900Y0036548D01*
X0441944Y0036384D01*
X0441983Y0036220D01*
X0442018Y0036054D01*
X0442049Y0035888D01*
X0442075Y0035721D01*
X0442098Y0035553D01*
X0442117Y0035385D01*
X0442131Y0035217D01*
X0442142Y0035048D01*
X0442148Y0034879D01*
X0442150Y0034710D01*
X0442148Y0034541D01*
X0442142Y0034372D01*
X0442131Y0034203D01*
X0442117Y0034035D01*
X0442098Y0033867D01*
X0442075Y0033699D01*
X0442049Y0033532D01*
X0442018Y0033366D01*
X0441983Y0033200D01*
X0441944Y0033036D01*
X0441900Y0032872D01*
X0441853Y0032710D01*
X0441802Y0032549D01*
X0441747Y0032389D01*
X0441688Y0032230D01*
X0441626Y0032073D01*
X0441559Y0031918D01*
X0441488Y0031764D01*
X0441414Y0031612D01*
X0441336Y0031462D01*
X0441255Y0031314D01*
X0441170Y0031168D01*
X0441081Y0031024D01*
X0440989Y0030882D01*
X0440893Y0030743D01*
X0440794Y0030606D01*
X0440692Y0030471D01*
X0440586Y0030339D01*
X0440477Y0030210D01*
X0440365Y0030083D01*
X0440250Y0029959D01*
X0440132Y0029838D01*
X0440011Y0029720D01*
X0439887Y0029605D01*
X0439760Y0029493D01*
X0439631Y0029384D01*
X0439499Y0029278D01*
X0439364Y0029176D01*
X0439227Y0029077D01*
X0439088Y0028981D01*
X0438946Y0028889D01*
X0438802Y0028800D01*
X0438656Y0028715D01*
X0438508Y0028634D01*
X0438358Y0028556D01*
X0438206Y0028482D01*
X0438052Y0028411D01*
X0437897Y0028344D01*
X0437740Y0028282D01*
X0437581Y0028223D01*
X0437421Y0028168D01*
X0437260Y0028117D01*
X0437098Y0028070D01*
X0436934Y0028026D01*
X0436770Y0027987D01*
X0436604Y0027952D01*
X0436438Y0027921D01*
X0436271Y0027895D01*
X0436103Y0027872D01*
X0435935Y0027853D01*
X0435767Y0027839D01*
X0435598Y0027828D01*
X0435429Y0027822D01*
X0435260Y0027820D01*
X0435091Y0027822D01*
X0434922Y0027828D01*
X0434753Y0027839D01*
X0434585Y0027853D01*
X0434417Y0027872D01*
X0434249Y0027895D01*
X0434082Y0027921D01*
X0433916Y0027952D01*
X0433750Y0027987D01*
X0433586Y0028026D01*
X0433422Y0028070D01*
X0433260Y0028117D01*
X0433099Y0028168D01*
X0432939Y0028223D01*
X0432780Y0028282D01*
X0432623Y0028344D01*
X0432468Y0028411D01*
X0432314Y0028482D01*
X0432162Y0028556D01*
X0432012Y0028634D01*
X0431864Y0028715D01*
X0431718Y0028800D01*
X0431574Y0028889D01*
X0431432Y0028981D01*
X0431293Y0029077D01*
X0431156Y0029176D01*
X0431021Y0029278D01*
X0430889Y0029384D01*
X0430760Y0029493D01*
X0430633Y0029605D01*
X0430509Y0029720D01*
X0430388Y0029838D01*
X0430270Y0029959D01*
X0430155Y0030083D01*
X0430043Y0030210D01*
X0429934Y0030339D01*
X0429828Y0030471D01*
X0429726Y0030606D01*
X0429627Y0030743D01*
X0429531Y0030882D01*
X0429439Y0031024D01*
X0429350Y0031168D01*
X0429265Y0031314D01*
X0429184Y0031462D01*
X0429106Y0031612D01*
X0429032Y0031764D01*
X0428961Y0031918D01*
X0428894Y0032073D01*
X0428832Y0032230D01*
X0428773Y0032389D01*
X0428718Y0032549D01*
X0428667Y0032710D01*
X0428620Y0032872D01*
X0428576Y0033036D01*
X0428537Y0033200D01*
X0428502Y0033366D01*
X0428471Y0033532D01*
X0428445Y0033699D01*
X0428422Y0033867D01*
X0428403Y0034035D01*
X0428389Y0034203D01*
X0428378Y0034372D01*
X0428372Y0034541D01*
X0428370Y0034710D01*
D11*
X0054500Y0022200D02*
X0054500Y0415901D01*
X0448201Y0415901D01*
X0448201Y0022200D01*
X0054500Y0022200D01*
D12*
X0241420Y0263800D03*
X0237740Y0267800D03*
X0237260Y0271720D03*
X0240540Y0272600D03*
X0230620Y0268520D03*
X0230540Y0268600D03*
X0230460Y0268760D03*
X0230380Y0268840D03*
X0230300Y0268920D03*
X0230300Y0269000D03*
X0230220Y0269080D03*
X0230140Y0269160D03*
X0230140Y0269240D03*
X0232940Y0280280D03*
X0231260Y0285400D03*
X0231740Y0286280D03*
X0230620Y0287880D03*
X0231340Y0291960D03*
X0230700Y0292760D03*
X0230620Y0292840D03*
X0236220Y0289800D03*
X0244380Y0286760D03*
X0245580Y0288600D03*
X0255500Y0299240D03*
X0251500Y0302440D03*
X0235020Y0299800D03*
X0234940Y0299960D03*
X0234780Y0300280D03*
X0262620Y0285000D03*
X0263500Y0273960D03*
X0263420Y0273880D03*
X0260700Y0269480D03*
X0260620Y0269320D03*
X0260540Y0269240D03*
X0260460Y0269160D03*
X0260380Y0269000D03*
X0260300Y0268920D03*
X0257420Y0268520D03*
X0257020Y0265640D03*
X0256700Y0265480D03*
X0256300Y0265720D03*
D13*
X0240380Y0263800D03*
X0237180Y0264360D03*
X0232940Y0281880D03*
X0231420Y0282760D03*
X0234700Y0282680D03*
X0236540Y0285000D03*
X0239740Y0285000D03*
X0241740Y0291480D03*
X0246220Y0300520D03*
X0246140Y0281320D03*
D14*
X0251060Y0282040D03*
X0237620Y0273320D03*
X0240580Y0263880D03*
D15*
X0240660Y0263960D03*
D16*
X0240740Y0264040D03*
D17*
X0240820Y0264120D03*
D18*
X0240860Y0264200D03*
D19*
X0243740Y0264280D03*
X0253100Y0265960D03*
X0237580Y0272680D03*
D20*
X0237660Y0264280D03*
X0234460Y0282600D03*
X0241180Y0284520D03*
X0244460Y0286680D03*
X0247820Y0283160D03*
X0247500Y0300600D03*
D21*
X0238220Y0285640D03*
X0231660Y0282600D03*
X0244300Y0280360D03*
X0247980Y0283080D03*
X0244300Y0264360D03*
D22*
X0244780Y0264440D03*
X0253020Y0265800D03*
X0255100Y0266200D03*
X0242780Y0273400D03*
X0244300Y0280280D03*
X0245980Y0281240D03*
X0241260Y0284440D03*
X0234380Y0287320D03*
X0251100Y0289640D03*
X0252700Y0281480D03*
D23*
X0246420Y0281480D03*
X0242580Y0281400D03*
X0242500Y0285480D03*
X0242580Y0285560D03*
X0246020Y0285640D03*
X0234980Y0282840D03*
X0231380Y0287160D03*
X0230900Y0288920D03*
X0236820Y0264440D03*
X0255300Y0267080D03*
D24*
X0250220Y0266600D03*
X0245180Y0264520D03*
X0238620Y0271320D03*
X0236140Y0274680D03*
X0234860Y0282760D03*
X0231340Y0282840D03*
X0241340Y0284280D03*
X0242700Y0281320D03*
X0246300Y0281400D03*
X0238300Y0290360D03*
D25*
X0234900Y0287160D03*
X0235140Y0282920D03*
X0231140Y0283000D03*
X0230980Y0288840D03*
X0242180Y0281720D03*
X0244180Y0283480D03*
X0244180Y0283560D03*
X0244180Y0283640D03*
X0244180Y0283720D03*
X0246180Y0285560D03*
X0246500Y0281560D03*
X0243700Y0265000D03*
X0240420Y0264680D03*
X0236500Y0264520D03*
X0252980Y0265720D03*
X0255220Y0266360D03*
D26*
X0245500Y0264600D03*
X0238220Y0264920D03*
X0237500Y0272200D03*
X0235900Y0277880D03*
X0235180Y0283000D03*
X0236300Y0284920D03*
X0235020Y0287080D03*
X0233580Y0285320D03*
X0233580Y0285240D03*
X0233580Y0285160D03*
X0233580Y0285080D03*
X0233580Y0285000D03*
X0233580Y0284920D03*
X0233580Y0284840D03*
X0231020Y0283080D03*
X0231180Y0287000D03*
X0240300Y0284760D03*
X0240460Y0284680D03*
X0241420Y0284120D03*
X0242220Y0285240D03*
X0242300Y0285320D03*
X0244220Y0283880D03*
X0244220Y0283800D03*
X0244140Y0283400D03*
X0244140Y0283320D03*
X0244140Y0283240D03*
X0244140Y0283160D03*
X0242140Y0281800D03*
X0244220Y0280200D03*
X0246620Y0281640D03*
X0246300Y0285480D03*
X0244460Y0290600D03*
X0241740Y0291560D03*
X0256940Y0297080D03*
D27*
X0247700Y0300680D03*
X0240660Y0298840D03*
X0243620Y0286760D03*
X0242180Y0285160D03*
X0242100Y0285080D03*
X0241460Y0284040D03*
X0241940Y0281960D03*
X0242020Y0281880D03*
X0244180Y0283080D03*
X0244180Y0283960D03*
X0244180Y0284040D03*
X0246420Y0285400D03*
X0246500Y0285320D03*
X0246580Y0285240D03*
X0246660Y0285160D03*
X0246740Y0285080D03*
X0246900Y0282040D03*
X0246820Y0281880D03*
X0246740Y0281800D03*
X0246660Y0281720D03*
X0244020Y0276760D03*
X0242820Y0273320D03*
X0238100Y0278600D03*
X0233220Y0278360D03*
X0235300Y0283080D03*
X0233620Y0284760D03*
X0233620Y0285400D03*
X0233620Y0285480D03*
X0233620Y0285560D03*
X0235060Y0287000D03*
X0231060Y0286920D03*
X0230980Y0286840D03*
X0230660Y0283800D03*
X0236260Y0264600D03*
X0250180Y0266680D03*
X0253140Y0266600D03*
D28*
X0245820Y0264680D03*
X0244220Y0265080D03*
X0235980Y0264680D03*
X0234140Y0274440D03*
X0232860Y0281800D03*
X0230940Y0283160D03*
X0230860Y0283240D03*
X0230620Y0283720D03*
X0230860Y0286680D03*
X0230940Y0286760D03*
X0233660Y0285640D03*
X0233580Y0284680D03*
X0233580Y0284600D03*
X0233580Y0284520D03*
X0235340Y0283160D03*
X0235340Y0286760D03*
X0235260Y0286840D03*
X0235180Y0286920D03*
X0235980Y0287400D03*
X0239420Y0289640D03*
X0241260Y0289400D03*
X0242060Y0285000D03*
X0241980Y0284920D03*
X0241500Y0283960D03*
X0241900Y0282040D03*
X0244140Y0282920D03*
X0244140Y0283000D03*
X0244220Y0284120D03*
X0246780Y0285000D03*
X0246860Y0284920D03*
X0246860Y0284840D03*
X0246940Y0284760D03*
X0247020Y0282280D03*
X0247020Y0282200D03*
X0246940Y0282120D03*
X0246860Y0281960D03*
X0246540Y0291240D03*
X0244940Y0300360D03*
X0256380Y0297000D03*
X0261740Y0286360D03*
X0261340Y0273720D03*
X0261980Y0273000D03*
X0233820Y0297960D03*
D29*
X0239220Y0288840D03*
X0235460Y0286600D03*
X0233620Y0285720D03*
X0230660Y0286440D03*
X0235460Y0283240D03*
X0241700Y0282360D03*
X0241860Y0282120D03*
X0241860Y0284760D03*
X0247060Y0284520D03*
X0238660Y0271240D03*
X0246020Y0264760D03*
X0255300Y0266440D03*
D30*
X0240540Y0264760D03*
X0248540Y0282760D03*
D31*
X0247180Y0284120D03*
X0247180Y0284200D03*
X0247100Y0284360D03*
X0247100Y0284440D03*
X0244220Y0284280D03*
X0244140Y0282760D03*
X0241580Y0282760D03*
X0241580Y0282840D03*
X0241580Y0282920D03*
X0241580Y0282680D03*
X0241500Y0283160D03*
X0241500Y0283240D03*
X0241500Y0283320D03*
X0241500Y0283400D03*
X0241500Y0283480D03*
X0241500Y0283560D03*
X0241500Y0283640D03*
X0241500Y0283720D03*
X0241500Y0283800D03*
X0241820Y0284680D03*
X0236140Y0284840D03*
X0235740Y0283720D03*
X0235580Y0283480D03*
X0235500Y0283320D03*
X0233580Y0284360D03*
X0233580Y0284440D03*
X0235580Y0286440D03*
X0235500Y0286520D03*
X0230700Y0286520D03*
X0230620Y0286360D03*
X0230540Y0286280D03*
X0230380Y0285960D03*
X0230300Y0285720D03*
X0230220Y0285320D03*
X0230220Y0285240D03*
X0230220Y0284600D03*
X0230220Y0284520D03*
X0230220Y0284440D03*
X0230220Y0284360D03*
X0230300Y0284200D03*
X0230620Y0283640D03*
X0230700Y0283400D03*
X0230780Y0283320D03*
X0235100Y0301080D03*
X0240620Y0298760D03*
X0255340Y0267160D03*
X0250940Y0266440D03*
X0250140Y0266760D03*
X0246300Y0264840D03*
X0244700Y0265160D03*
X0237740Y0265000D03*
X0235740Y0264760D03*
D32*
X0240620Y0264840D03*
D33*
X0235540Y0264840D03*
X0246500Y0264920D03*
X0251140Y0266360D03*
X0251700Y0266120D03*
X0258820Y0269480D03*
X0261860Y0272920D03*
X0262180Y0276120D03*
X0253940Y0280200D03*
X0247300Y0283480D03*
X0247300Y0283560D03*
X0247300Y0283640D03*
X0247300Y0283720D03*
X0247220Y0283960D03*
X0247220Y0284040D03*
X0244180Y0282680D03*
X0241540Y0283000D03*
X0241540Y0283080D03*
X0238100Y0278680D03*
X0235860Y0277800D03*
X0235700Y0283640D03*
X0235780Y0283800D03*
X0235780Y0283880D03*
X0235860Y0283960D03*
X0235860Y0284040D03*
X0235940Y0284200D03*
X0235940Y0284280D03*
X0235940Y0284360D03*
X0236020Y0284520D03*
X0236020Y0284600D03*
X0236020Y0284680D03*
X0236020Y0284760D03*
X0235860Y0285960D03*
X0235780Y0286120D03*
X0235700Y0286200D03*
X0235700Y0286280D03*
X0233700Y0285960D03*
X0230500Y0286200D03*
X0230420Y0286040D03*
X0230340Y0285880D03*
X0230340Y0285800D03*
X0230260Y0285640D03*
X0230260Y0285560D03*
X0230260Y0285480D03*
X0230260Y0285400D03*
X0230180Y0285160D03*
X0230180Y0285080D03*
X0230180Y0285000D03*
X0230180Y0284920D03*
X0230180Y0284840D03*
X0230180Y0284760D03*
X0230180Y0284680D03*
X0230260Y0284280D03*
X0230340Y0284120D03*
X0230340Y0284040D03*
X0230420Y0283960D03*
X0230420Y0283880D03*
X0230580Y0283560D03*
X0230660Y0283480D03*
X0244420Y0290520D03*
X0244420Y0300280D03*
X0255940Y0296920D03*
D34*
X0245860Y0285720D03*
X0242740Y0285640D03*
X0239220Y0288760D03*
X0233060Y0288120D03*
X0231540Y0287240D03*
X0242980Y0264920D03*
X0255140Y0266280D03*
X0261380Y0273800D03*
D35*
X0262220Y0273080D03*
X0251500Y0266200D03*
X0251340Y0266280D03*
X0246860Y0265080D03*
X0246700Y0265000D03*
X0237340Y0265080D03*
X0235340Y0264920D03*
X0235180Y0265000D03*
X0235900Y0284120D03*
X0235980Y0284440D03*
X0235980Y0285640D03*
X0235980Y0285720D03*
X0235900Y0285800D03*
X0235900Y0285880D03*
X0235820Y0286040D03*
X0233580Y0284280D03*
X0230460Y0288280D03*
X0235820Y0292840D03*
X0243820Y0288520D03*
X0246540Y0291320D03*
X0244220Y0284360D03*
D36*
X0244260Y0284440D03*
X0244180Y0282600D03*
X0246500Y0286360D03*
X0249940Y0287480D03*
X0255540Y0296840D03*
X0255300Y0299080D03*
X0244100Y0300200D03*
X0234900Y0301160D03*
X0236420Y0293000D03*
X0236980Y0292840D03*
X0237300Y0291080D03*
X0233060Y0288200D03*
X0231300Y0289000D03*
X0233540Y0284200D03*
X0233220Y0278280D03*
X0241940Y0273480D03*
X0247060Y0265160D03*
X0247220Y0265240D03*
X0247380Y0265320D03*
X0250340Y0267720D03*
X0252260Y0266760D03*
X0258900Y0269560D03*
X0261780Y0272840D03*
X0260420Y0273880D03*
X0234980Y0265080D03*
X0234820Y0265160D03*
D37*
X0236940Y0265160D03*
X0241580Y0273560D03*
X0243980Y0276680D03*
X0240940Y0278200D03*
X0239980Y0277880D03*
X0243180Y0286840D03*
X0244940Y0288280D03*
X0246780Y0286280D03*
X0239980Y0288680D03*
X0237180Y0290520D03*
X0233740Y0286040D03*
X0253740Y0298440D03*
X0255180Y0296760D03*
X0258940Y0269640D03*
X0250380Y0267800D03*
X0250140Y0266840D03*
X0247740Y0265480D03*
X0247580Y0265400D03*
D38*
X0247900Y0265560D03*
X0248060Y0265640D03*
X0249500Y0266440D03*
X0245100Y0265240D03*
X0243660Y0273480D03*
X0253900Y0276520D03*
X0254060Y0276600D03*
X0262460Y0273160D03*
X0248700Y0285560D03*
X0247100Y0286200D03*
X0245260Y0288360D03*
X0251900Y0289560D03*
X0237020Y0291000D03*
X0233100Y0288680D03*
X0230460Y0288200D03*
X0234700Y0301240D03*
X0234460Y0265320D03*
X0234620Y0265240D03*
D39*
X0236660Y0265240D03*
X0241060Y0273720D03*
X0243460Y0276840D03*
X0262260Y0285480D03*
X0262260Y0286280D03*
X0249860Y0299640D03*
D40*
X0250100Y0301480D03*
X0251220Y0302200D03*
X0257140Y0297160D03*
X0261700Y0286440D03*
X0262180Y0285560D03*
X0262500Y0276200D03*
X0262180Y0273880D03*
X0262580Y0273240D03*
X0261700Y0272760D03*
X0258980Y0269720D03*
X0257940Y0269080D03*
X0254580Y0267000D03*
X0249300Y0266360D03*
X0249140Y0266280D03*
X0248900Y0266120D03*
X0248740Y0266040D03*
X0248580Y0265960D03*
X0248500Y0265880D03*
X0248340Y0265800D03*
X0248180Y0265720D03*
X0245380Y0265320D03*
X0239540Y0266600D03*
X0239140Y0266760D03*
X0236420Y0265320D03*
X0234340Y0265400D03*
X0234180Y0265480D03*
X0237940Y0271400D03*
X0240820Y0273800D03*
X0241300Y0273640D03*
X0244500Y0276840D03*
X0253140Y0281240D03*
X0253940Y0280280D03*
X0249300Y0287640D03*
X0247380Y0286120D03*
X0243780Y0288440D03*
X0241620Y0289320D03*
X0236900Y0290600D03*
X0235780Y0288760D03*
X0236500Y0287320D03*
X0233540Y0284120D03*
X0230500Y0288120D03*
X0232900Y0274680D03*
X0235540Y0301000D03*
X0243780Y0300120D03*
D41*
X0243500Y0300040D03*
X0248540Y0300520D03*
X0249820Y0301880D03*
X0249740Y0301960D03*
X0249660Y0302040D03*
X0251260Y0302280D03*
X0255420Y0299160D03*
X0245100Y0290680D03*
X0244300Y0288600D03*
X0242860Y0286920D03*
X0240460Y0288520D03*
X0240220Y0288600D03*
X0238460Y0288680D03*
X0239260Y0290520D03*
X0237580Y0291160D03*
X0236780Y0290920D03*
X0237340Y0292760D03*
X0234940Y0289240D03*
X0236700Y0287240D03*
X0237180Y0287080D03*
X0241740Y0291640D03*
X0242540Y0291400D03*
X0247580Y0286040D03*
X0248860Y0285480D03*
X0249020Y0287720D03*
X0244220Y0282520D03*
X0240700Y0278120D03*
X0240380Y0273960D03*
X0240540Y0273880D03*
X0239340Y0271400D03*
X0237660Y0271480D03*
X0237500Y0272120D03*
X0232620Y0274760D03*
X0233740Y0278440D03*
X0234300Y0278680D03*
X0230540Y0288040D03*
X0234300Y0298040D03*
X0235820Y0300920D03*
X0238060Y0299640D03*
X0262060Y0285640D03*
X0262300Y0285400D03*
X0263500Y0276600D03*
X0262780Y0276280D03*
X0260300Y0273960D03*
X0258300Y0269320D03*
X0258060Y0269160D03*
X0257820Y0269000D03*
X0257740Y0268920D03*
X0255420Y0266520D03*
X0255820Y0266040D03*
X0256700Y0265560D03*
X0253900Y0266760D03*
X0251980Y0266840D03*
X0249020Y0266200D03*
X0245900Y0265480D03*
X0245660Y0265400D03*
X0239980Y0266760D03*
X0236140Y0265400D03*
X0235900Y0265480D03*
X0234060Y0265560D03*
X0233900Y0265640D03*
X0233820Y0265720D03*
X0233660Y0265800D03*
X0233420Y0265960D03*
X0243900Y0273560D03*
D42*
X0244180Y0273640D03*
X0244340Y0273720D03*
X0244740Y0276920D03*
X0243220Y0276920D03*
X0239460Y0278040D03*
X0236500Y0277960D03*
X0235860Y0277720D03*
X0232660Y0278440D03*
X0231940Y0279320D03*
X0232420Y0274840D03*
X0237460Y0271560D03*
X0234820Y0265960D03*
X0234980Y0265880D03*
X0235140Y0265800D03*
X0235300Y0265720D03*
X0235540Y0265640D03*
X0235700Y0265560D03*
X0233540Y0265880D03*
X0233300Y0266040D03*
X0233140Y0266120D03*
X0233060Y0266200D03*
X0232820Y0266360D03*
X0232740Y0266440D03*
X0246100Y0265560D03*
X0246340Y0265640D03*
X0246500Y0265720D03*
X0246660Y0265800D03*
X0246900Y0265880D03*
X0247060Y0265960D03*
X0247380Y0266120D03*
X0250100Y0266920D03*
X0252980Y0265640D03*
X0254340Y0266920D03*
X0256020Y0267000D03*
X0256820Y0266440D03*
X0257540Y0268760D03*
X0257620Y0268840D03*
X0258180Y0269240D03*
X0258500Y0269400D03*
X0257540Y0269800D03*
X0258980Y0271240D03*
X0262740Y0273320D03*
X0262100Y0276040D03*
X0261780Y0276200D03*
X0263540Y0276680D03*
X0262340Y0285240D03*
X0262340Y0285320D03*
X0262500Y0286200D03*
X0263300Y0285640D03*
X0261300Y0286280D03*
X0253540Y0280120D03*
X0254340Y0276680D03*
X0253700Y0276440D03*
X0248420Y0285640D03*
X0248260Y0285720D03*
X0248100Y0285800D03*
X0248820Y0287800D03*
X0250260Y0289560D03*
X0246340Y0287560D03*
X0246180Y0287640D03*
X0246020Y0287720D03*
X0245780Y0287800D03*
X0245620Y0287880D03*
X0245460Y0288440D03*
X0243300Y0288760D03*
X0243860Y0290680D03*
X0242740Y0291320D03*
X0240900Y0291400D03*
X0238340Y0290280D03*
X0238180Y0289400D03*
X0237780Y0291240D03*
X0236660Y0290680D03*
X0237540Y0292680D03*
X0235460Y0292760D03*
X0234340Y0288920D03*
X0233700Y0286120D03*
X0236900Y0287160D03*
X0240660Y0288440D03*
X0245300Y0290760D03*
X0246020Y0291160D03*
X0244260Y0284520D03*
X0230180Y0289400D03*
X0230020Y0289320D03*
X0234500Y0298120D03*
X0236020Y0300840D03*
X0236260Y0300760D03*
X0236420Y0300680D03*
X0240580Y0298680D03*
X0242900Y0299800D03*
X0243300Y0299960D03*
X0247700Y0300760D03*
X0248740Y0300440D03*
X0249540Y0302120D03*
X0254020Y0298520D03*
X0254180Y0298600D03*
X0254820Y0298920D03*
X0254980Y0299000D03*
D43*
X0255380Y0298760D03*
X0255220Y0298520D03*
X0255140Y0298360D03*
X0255060Y0298200D03*
X0254980Y0297960D03*
X0254980Y0297880D03*
X0254980Y0297800D03*
X0254900Y0297480D03*
X0254900Y0297400D03*
X0254900Y0297320D03*
X0254900Y0297240D03*
X0254900Y0297160D03*
X0254900Y0297080D03*
X0254900Y0297000D03*
X0254900Y0296920D03*
X0254900Y0296840D03*
X0255540Y0299000D03*
X0257620Y0296840D03*
X0257540Y0296680D03*
X0257380Y0296360D03*
X0261140Y0292840D03*
X0261380Y0292520D03*
X0261540Y0292280D03*
X0261620Y0292120D03*
X0261700Y0291960D03*
X0261780Y0291800D03*
X0261860Y0291640D03*
X0261940Y0291480D03*
X0262020Y0291320D03*
X0262020Y0291240D03*
X0262100Y0291080D03*
X0262100Y0291000D03*
X0262180Y0290840D03*
X0262180Y0290760D03*
X0262260Y0290520D03*
X0262260Y0290440D03*
X0262340Y0290200D03*
X0262340Y0290120D03*
X0262340Y0290040D03*
X0262420Y0289800D03*
X0262420Y0289720D03*
X0262420Y0289640D03*
X0262420Y0289560D03*
X0262500Y0289400D03*
X0262500Y0289320D03*
X0262500Y0289240D03*
X0262500Y0289160D03*
X0262500Y0289080D03*
X0262500Y0289000D03*
X0262500Y0288600D03*
X0262500Y0288520D03*
X0262500Y0288440D03*
X0262500Y0288360D03*
X0262500Y0288280D03*
X0262420Y0288040D03*
X0262420Y0287960D03*
X0262420Y0287880D03*
X0262420Y0287800D03*
X0262420Y0287720D03*
X0262980Y0287080D03*
X0263140Y0286840D03*
X0263300Y0286520D03*
X0263380Y0286360D03*
X0263380Y0286280D03*
X0263460Y0285960D03*
X0263460Y0285880D03*
X0263460Y0285800D03*
X0263060Y0285800D03*
X0262500Y0285080D03*
X0261780Y0284520D03*
X0261860Y0284360D03*
X0261860Y0284280D03*
X0261940Y0284120D03*
X0261940Y0284040D03*
X0262020Y0283880D03*
X0262020Y0283800D03*
X0262020Y0283720D03*
X0262100Y0283480D03*
X0262100Y0283400D03*
X0262100Y0283320D03*
X0262100Y0283240D03*
X0262100Y0283160D03*
X0262100Y0283080D03*
X0262100Y0283000D03*
X0262100Y0282920D03*
X0262100Y0282840D03*
X0262100Y0282760D03*
X0262100Y0282680D03*
X0262100Y0282600D03*
X0262100Y0282520D03*
X0262100Y0282440D03*
X0262100Y0282360D03*
X0262100Y0282280D03*
X0262100Y0282200D03*
X0262020Y0282040D03*
X0262020Y0281960D03*
X0262020Y0281880D03*
X0262020Y0281800D03*
X0261940Y0281640D03*
X0261940Y0281560D03*
X0261940Y0281480D03*
X0261860Y0281320D03*
X0261860Y0281240D03*
X0261780Y0281000D03*
X0261780Y0280920D03*
X0261700Y0280760D03*
X0261700Y0280680D03*
X0261700Y0280600D03*
X0261620Y0280440D03*
X0261620Y0280360D03*
X0261540Y0280120D03*
X0261540Y0280040D03*
X0261460Y0279800D03*
X0261460Y0279720D03*
X0261380Y0279560D03*
X0261380Y0279480D03*
X0261380Y0279400D03*
X0261300Y0279160D03*
X0261300Y0279080D03*
X0261220Y0278840D03*
X0261220Y0278760D03*
X0261140Y0278520D03*
X0261140Y0278440D03*
X0261140Y0278360D03*
X0261060Y0278200D03*
X0261060Y0278120D03*
X0261060Y0278040D03*
X0261060Y0277960D03*
X0260980Y0277800D03*
X0260980Y0277720D03*
X0260980Y0277640D03*
X0260980Y0277560D03*
X0260980Y0277480D03*
X0261060Y0277320D03*
X0261060Y0277240D03*
X0261140Y0277080D03*
X0261140Y0277000D03*
X0261220Y0276840D03*
X0261300Y0276680D03*
X0263620Y0276200D03*
X0263620Y0276120D03*
X0263620Y0276040D03*
X0263620Y0275960D03*
X0263620Y0275880D03*
X0263620Y0275800D03*
X0263540Y0275640D03*
X0263540Y0275560D03*
X0263540Y0275480D03*
X0263460Y0275240D03*
X0263460Y0275160D03*
X0263380Y0275000D03*
X0263140Y0274520D03*
X0263380Y0273800D03*
X0261540Y0272600D03*
X0260660Y0272360D03*
X0260660Y0272280D03*
X0260660Y0272200D03*
X0260740Y0271960D03*
X0260740Y0271880D03*
X0260740Y0271800D03*
X0260740Y0271720D03*
X0260740Y0271640D03*
X0260740Y0271560D03*
X0260740Y0271480D03*
X0260740Y0271400D03*
X0260740Y0271320D03*
X0260740Y0271240D03*
X0260740Y0271160D03*
X0260740Y0271080D03*
X0260740Y0271000D03*
X0260740Y0270920D03*
X0260740Y0270840D03*
X0260660Y0270600D03*
X0260660Y0270520D03*
X0260580Y0270360D03*
X0260420Y0270120D03*
X0259780Y0270120D03*
X0259780Y0270040D03*
X0259780Y0269960D03*
X0259780Y0269880D03*
X0259700Y0270280D03*
X0259700Y0270360D03*
X0259620Y0270520D03*
X0259620Y0270600D03*
X0259140Y0270120D03*
X0259140Y0270040D03*
X0258660Y0270520D03*
X0258740Y0270680D03*
X0258740Y0270760D03*
X0258820Y0271000D03*
X0258820Y0271080D03*
X0259140Y0271160D03*
X0258900Y0271560D03*
X0260580Y0272600D03*
X0260580Y0272680D03*
X0260500Y0272920D03*
X0260420Y0273080D03*
X0260420Y0273160D03*
X0260180Y0273560D03*
X0260100Y0273720D03*
X0260100Y0273800D03*
X0260260Y0274040D03*
X0263700Y0276920D03*
X0255940Y0278440D03*
X0255940Y0278520D03*
X0255940Y0278600D03*
X0256020Y0278840D03*
X0256020Y0278920D03*
X0256020Y0279000D03*
X0256020Y0279080D03*
X0256020Y0279160D03*
X0256020Y0279240D03*
X0256020Y0279320D03*
X0256020Y0279400D03*
X0256020Y0279480D03*
X0256020Y0279560D03*
X0256020Y0279640D03*
X0256020Y0279720D03*
X0256020Y0279800D03*
X0256020Y0279880D03*
X0256020Y0279960D03*
X0255940Y0280200D03*
X0255940Y0280280D03*
X0255940Y0280360D03*
X0255940Y0280440D03*
X0255860Y0280600D03*
X0255860Y0280680D03*
X0255780Y0280920D03*
X0255700Y0281160D03*
X0254500Y0279960D03*
X0254580Y0279800D03*
X0254580Y0279720D03*
X0254580Y0279640D03*
X0254580Y0279560D03*
X0254500Y0279320D03*
X0254020Y0278520D03*
X0253060Y0279800D03*
X0253220Y0281160D03*
X0253620Y0281960D03*
X0253620Y0282040D03*
X0253700Y0282360D03*
X0253700Y0282440D03*
X0253700Y0282520D03*
X0253780Y0282840D03*
X0253780Y0282920D03*
X0253780Y0283000D03*
X0253780Y0283400D03*
X0253780Y0283480D03*
X0253700Y0283640D03*
X0252580Y0285000D03*
X0252420Y0285240D03*
X0252340Y0285480D03*
X0252340Y0285560D03*
X0252340Y0285640D03*
X0252340Y0285720D03*
X0252340Y0285800D03*
X0252340Y0285880D03*
X0252340Y0285960D03*
X0252340Y0286040D03*
X0252420Y0286280D03*
X0252420Y0286360D03*
X0252500Y0286520D03*
X0252500Y0286600D03*
X0252580Y0286760D03*
X0252660Y0286920D03*
X0252740Y0287080D03*
X0252820Y0287240D03*
X0252900Y0287400D03*
X0252980Y0287640D03*
X0252980Y0287720D03*
X0252980Y0288200D03*
X0252980Y0288280D03*
X0252980Y0288360D03*
X0252900Y0288600D03*
X0252820Y0288760D03*
X0252740Y0288920D03*
X0249460Y0288920D03*
X0249380Y0288760D03*
X0249300Y0288520D03*
X0249380Y0288280D03*
X0249460Y0288120D03*
X0247940Y0288440D03*
X0247860Y0288600D03*
X0247780Y0288760D03*
X0247780Y0288840D03*
X0247780Y0288920D03*
X0247700Y0289400D03*
X0247700Y0289480D03*
X0247700Y0289560D03*
X0247700Y0289640D03*
X0247700Y0289720D03*
X0247700Y0289800D03*
X0247700Y0289880D03*
X0247700Y0289960D03*
X0247620Y0290200D03*
X0247620Y0290280D03*
X0247620Y0290360D03*
X0247540Y0290520D03*
X0247540Y0290600D03*
X0245540Y0288280D03*
X0245460Y0288120D03*
X0245460Y0288040D03*
X0243780Y0288360D03*
X0242580Y0287960D03*
X0242500Y0287800D03*
X0242420Y0287640D03*
X0242420Y0287560D03*
X0242420Y0287320D03*
X0242420Y0287240D03*
X0240820Y0288280D03*
X0238020Y0289320D03*
X0236740Y0288760D03*
X0236660Y0288920D03*
X0236580Y0289080D03*
X0236500Y0289240D03*
X0236260Y0289240D03*
X0236260Y0289160D03*
X0236180Y0289000D03*
X0236820Y0288600D03*
X0236900Y0288440D03*
X0236980Y0288200D03*
X0237060Y0288040D03*
X0237140Y0287800D03*
X0237220Y0287560D03*
X0237220Y0287480D03*
X0237300Y0287320D03*
X0237300Y0287240D03*
X0237300Y0287160D03*
X0237380Y0286920D03*
X0237380Y0286840D03*
X0237380Y0286760D03*
X0237380Y0286680D03*
X0237380Y0285960D03*
X0237380Y0285880D03*
X0237380Y0285800D03*
X0237140Y0284920D03*
X0237140Y0284840D03*
X0237060Y0284600D03*
X0236980Y0284440D03*
X0236980Y0284360D03*
X0236900Y0284200D03*
X0236820Y0284040D03*
X0236740Y0283880D03*
X0236660Y0283720D03*
X0236580Y0283560D03*
X0235940Y0282600D03*
X0234660Y0281000D03*
X0234340Y0280520D03*
X0234260Y0280360D03*
X0234260Y0280280D03*
X0234180Y0280120D03*
X0234180Y0280040D03*
X0234180Y0279960D03*
X0234180Y0279880D03*
X0234180Y0279800D03*
X0234180Y0279720D03*
X0234180Y0279640D03*
X0234180Y0279560D03*
X0234180Y0279480D03*
X0234180Y0279400D03*
X0234260Y0279240D03*
X0234260Y0279160D03*
X0234260Y0279080D03*
X0234260Y0279000D03*
X0232180Y0278840D03*
X0232100Y0279000D03*
X0232020Y0279160D03*
X0232020Y0279240D03*
X0231540Y0279000D03*
X0231380Y0278760D03*
X0231300Y0278600D03*
X0231220Y0278440D03*
X0231220Y0278360D03*
X0231140Y0278200D03*
X0231140Y0278120D03*
X0231140Y0278040D03*
X0231060Y0277720D03*
X0231060Y0277640D03*
X0231060Y0277560D03*
X0231060Y0277480D03*
X0231060Y0277400D03*
X0231060Y0277320D03*
X0231060Y0277240D03*
X0231060Y0277160D03*
X0231060Y0277080D03*
X0231060Y0277000D03*
X0231060Y0276920D03*
X0231060Y0276840D03*
X0231140Y0276600D03*
X0231140Y0276520D03*
X0231140Y0276440D03*
X0231140Y0276360D03*
X0231220Y0276200D03*
X0231220Y0276120D03*
X0231300Y0275960D03*
X0231300Y0275880D03*
X0231380Y0275720D03*
X0231540Y0275480D03*
X0228740Y0275480D03*
X0228740Y0275560D03*
X0228740Y0275640D03*
X0228740Y0275720D03*
X0228740Y0275800D03*
X0228740Y0275880D03*
X0228740Y0275960D03*
X0228740Y0276040D03*
X0228740Y0276120D03*
X0228820Y0276840D03*
X0228820Y0276920D03*
X0228820Y0277000D03*
X0228820Y0277080D03*
X0228820Y0277160D03*
X0228820Y0277240D03*
X0228820Y0277320D03*
X0228900Y0277640D03*
X0228900Y0277720D03*
X0228900Y0277800D03*
X0228900Y0277880D03*
X0228900Y0277960D03*
X0228980Y0278200D03*
X0228980Y0278280D03*
X0228980Y0278360D03*
X0228980Y0278440D03*
X0229060Y0278600D03*
X0229060Y0278680D03*
X0229060Y0278760D03*
X0229140Y0279000D03*
X0229140Y0279080D03*
X0229220Y0279320D03*
X0229220Y0279400D03*
X0229300Y0279560D03*
X0229300Y0279640D03*
X0229380Y0279800D03*
X0229380Y0279880D03*
X0229460Y0280040D03*
X0229540Y0280200D03*
X0229620Y0280440D03*
X0229700Y0280600D03*
X0229700Y0280680D03*
X0229780Y0280840D03*
X0229780Y0280920D03*
X0229860Y0281080D03*
X0229860Y0281160D03*
X0229940Y0281320D03*
X0229940Y0281400D03*
X0230020Y0281560D03*
X0230020Y0281640D03*
X0230100Y0281800D03*
X0230100Y0281880D03*
X0230180Y0282040D03*
X0230500Y0282520D03*
X0231540Y0284280D03*
X0231700Y0284520D03*
X0231780Y0284680D03*
X0231860Y0284840D03*
X0231940Y0285000D03*
X0232020Y0285160D03*
X0232100Y0285320D03*
X0232100Y0285400D03*
X0232180Y0285560D03*
X0232180Y0285640D03*
X0232260Y0285880D03*
X0232260Y0285960D03*
X0232260Y0286040D03*
X0232340Y0286280D03*
X0232340Y0286360D03*
X0232340Y0286440D03*
X0232340Y0286520D03*
X0232340Y0286600D03*
X0232340Y0286680D03*
X0232340Y0286760D03*
X0232340Y0286840D03*
X0232340Y0286920D03*
X0232340Y0287000D03*
X0232340Y0287080D03*
X0232340Y0287160D03*
X0232340Y0288280D03*
X0232340Y0288360D03*
X0232340Y0288440D03*
X0232420Y0288680D03*
X0232500Y0288920D03*
X0232500Y0289000D03*
X0232580Y0289160D03*
X0232580Y0289240D03*
X0232660Y0289480D03*
X0232740Y0289640D03*
X0232740Y0289720D03*
X0232820Y0289880D03*
X0232900Y0290040D03*
X0232980Y0290200D03*
X0233060Y0290360D03*
X0233220Y0290600D03*
X0233620Y0291160D03*
X0231940Y0291480D03*
X0231940Y0291560D03*
X0231940Y0291640D03*
X0231860Y0291240D03*
X0231860Y0291160D03*
X0231780Y0291000D03*
X0231700Y0290840D03*
X0231620Y0290680D03*
X0231540Y0290520D03*
X0231300Y0292040D03*
X0231940Y0292120D03*
X0231940Y0292200D03*
X0231860Y0292440D03*
X0230820Y0292600D03*
X0230740Y0292680D03*
X0230740Y0293640D03*
X0230660Y0293800D03*
X0230580Y0294120D03*
X0230580Y0294200D03*
X0230660Y0294440D03*
X0230660Y0294520D03*
X0230740Y0294680D03*
X0230820Y0294840D03*
X0232180Y0296280D03*
X0232340Y0296520D03*
X0232420Y0296680D03*
X0232420Y0296760D03*
X0232500Y0296920D03*
X0232580Y0297080D03*
X0232580Y0297160D03*
X0232660Y0297320D03*
X0232740Y0297480D03*
X0235540Y0299080D03*
X0235540Y0299160D03*
X0235620Y0299320D03*
X0235620Y0299400D03*
X0235620Y0299480D03*
X0235620Y0299560D03*
X0235620Y0299640D03*
X0235620Y0299720D03*
X0235620Y0299800D03*
X0235620Y0299880D03*
X0235620Y0299960D03*
X0235540Y0300120D03*
X0235380Y0300440D03*
X0234820Y0300200D03*
X0234820Y0300120D03*
X0234900Y0300040D03*
X0234980Y0299880D03*
X0238020Y0299480D03*
X0239700Y0299880D03*
X0239700Y0299960D03*
X0239700Y0300040D03*
X0239700Y0300120D03*
X0239700Y0300200D03*
X0239700Y0300280D03*
X0239780Y0300600D03*
X0239780Y0300840D03*
X0239780Y0299560D03*
X0239780Y0299480D03*
X0239780Y0299400D03*
X0239860Y0299240D03*
X0239940Y0299080D03*
X0238340Y0291640D03*
X0231540Y0288600D03*
X0231540Y0288520D03*
X0231460Y0288360D03*
X0231460Y0288280D03*
X0231380Y0288040D03*
X0231380Y0287960D03*
X0230100Y0288360D03*
X0231700Y0286200D03*
X0231620Y0286120D03*
X0233540Y0284040D03*
X0240340Y0280040D03*
X0240820Y0279400D03*
X0240900Y0279240D03*
X0240980Y0279000D03*
X0240980Y0278920D03*
X0240980Y0278840D03*
X0240980Y0278600D03*
X0240980Y0278520D03*
X0240980Y0278440D03*
X0244980Y0278520D03*
X0244980Y0278200D03*
X0245060Y0278040D03*
X0245060Y0277960D03*
X0245140Y0277640D03*
X0245140Y0277560D03*
X0245140Y0277480D03*
X0245140Y0277400D03*
X0245620Y0277720D03*
X0245540Y0277880D03*
X0245860Y0277240D03*
X0245940Y0277080D03*
X0245940Y0277000D03*
X0246020Y0276840D03*
X0246020Y0276760D03*
X0246100Y0276600D03*
X0246100Y0276520D03*
X0246100Y0276440D03*
X0246100Y0275880D03*
X0246100Y0275800D03*
X0246020Y0275560D03*
X0246020Y0275480D03*
X0245940Y0275320D03*
X0245860Y0275160D03*
X0240500Y0272520D03*
X0240500Y0272440D03*
X0240340Y0272200D03*
X0241300Y0268200D03*
X0241060Y0267720D03*
X0240980Y0267560D03*
X0250100Y0267000D03*
X0250500Y0267960D03*
X0250420Y0268120D03*
X0250340Y0268280D03*
X0250260Y0268440D03*
X0250180Y0268680D03*
X0250180Y0268760D03*
X0250100Y0268920D03*
X0250100Y0269000D03*
X0250100Y0269080D03*
X0250100Y0269160D03*
X0250020Y0269480D03*
X0250020Y0269560D03*
X0250020Y0269640D03*
X0250100Y0270040D03*
X0250100Y0270120D03*
X0250100Y0270200D03*
X0250180Y0270440D03*
X0250180Y0270520D03*
X0250260Y0270680D03*
X0250260Y0270760D03*
X0250340Y0270920D03*
X0250420Y0271080D03*
X0250500Y0271240D03*
X0250580Y0271400D03*
X0251060Y0272120D03*
X0252740Y0273880D03*
X0253060Y0274360D03*
X0253140Y0274520D03*
X0253220Y0274680D03*
X0253300Y0274920D03*
X0253380Y0275080D03*
X0253380Y0275160D03*
X0253460Y0275320D03*
X0253460Y0275400D03*
X0253460Y0275480D03*
X0253540Y0275640D03*
X0253540Y0275720D03*
X0253540Y0275800D03*
X0253540Y0275880D03*
X0253540Y0275960D03*
X0253540Y0276040D03*
X0253540Y0276120D03*
X0253540Y0276200D03*
X0253540Y0276280D03*
X0253540Y0276360D03*
X0255780Y0277960D03*
X0255860Y0278200D03*
X0255860Y0278280D03*
X0261460Y0284920D03*
X0261220Y0285240D03*
X0261140Y0285400D03*
X0261060Y0285560D03*
X0260980Y0285720D03*
X0260980Y0285800D03*
X0260980Y0285880D03*
X0260980Y0285960D03*
X0260980Y0286040D03*
X0250100Y0299720D03*
X0250100Y0299800D03*
X0250100Y0299880D03*
X0250100Y0300360D03*
X0250100Y0300440D03*
X0250100Y0300520D03*
X0250100Y0300600D03*
X0250100Y0300680D03*
X0250100Y0300760D03*
X0250100Y0300840D03*
X0250020Y0301000D03*
X0250020Y0301080D03*
X0250020Y0301160D03*
X0249940Y0301400D03*
X0249860Y0301560D03*
X0249780Y0301720D03*
X0249700Y0301800D03*
X0250020Y0301800D03*
X0250100Y0301640D03*
X0250100Y0301560D03*
X0250260Y0301320D03*
X0250580Y0301800D03*
X0251140Y0301560D03*
X0251140Y0301480D03*
X0251140Y0301400D03*
X0251140Y0301320D03*
X0251140Y0301240D03*
X0251140Y0301160D03*
X0251220Y0300920D03*
X0251380Y0300680D03*
X0251220Y0301800D03*
X0251300Y0301960D03*
X0228820Y0274760D03*
X0228820Y0274680D03*
X0228820Y0274600D03*
X0228820Y0274520D03*
X0228820Y0274440D03*
X0228900Y0274200D03*
X0228900Y0274120D03*
X0228900Y0274040D03*
X0228900Y0273960D03*
X0228980Y0273720D03*
X0228980Y0273640D03*
X0228980Y0273560D03*
X0229060Y0273400D03*
X0229060Y0273320D03*
X0229060Y0273240D03*
X0229140Y0273080D03*
X0229140Y0273000D03*
X0229140Y0272920D03*
X0229220Y0272760D03*
X0229220Y0272680D03*
X0229300Y0272440D03*
X0229300Y0272360D03*
X0229380Y0272200D03*
X0229380Y0272120D03*
X0229460Y0271960D03*
X0229460Y0271880D03*
X0229540Y0271720D03*
X0229620Y0271560D03*
X0229620Y0271480D03*
X0229700Y0271320D03*
X0229780Y0271160D03*
X0229780Y0271080D03*
X0229860Y0270920D03*
X0229940Y0270760D03*
X0230020Y0270600D03*
X0230100Y0270440D03*
X0230180Y0270280D03*
X0230420Y0269880D03*
X0230660Y0269480D03*
X0230500Y0268680D03*
X0230660Y0268440D03*
X0230740Y0268360D03*
X0230820Y0268280D03*
X0230900Y0268200D03*
X0231060Y0267960D03*
X0231140Y0267880D03*
X0231220Y0267800D03*
X0256100Y0265880D03*
X0256180Y0265800D03*
X0256420Y0265640D03*
X0256580Y0266600D03*
X0256980Y0266600D03*
X0256980Y0266520D03*
X0257060Y0266760D03*
X0257060Y0266840D03*
X0257060Y0266920D03*
X0257060Y0267000D03*
X0257060Y0267080D03*
X0257060Y0267160D03*
X0257060Y0267240D03*
X0257060Y0267320D03*
X0257060Y0267400D03*
X0257060Y0267480D03*
X0257060Y0267560D03*
X0256980Y0267800D03*
X0256980Y0267880D03*
X0256980Y0267960D03*
X0256900Y0268120D03*
X0256900Y0268200D03*
X0256900Y0268280D03*
X0256820Y0268440D03*
X0256740Y0268680D03*
X0256660Y0268840D03*
X0256660Y0268920D03*
X0256660Y0269000D03*
X0256660Y0269080D03*
X0257460Y0268600D03*
X0259860Y0269400D03*
X0260420Y0269080D03*
X0260180Y0268840D03*
D44*
X0253060Y0265880D03*
D45*
X0251620Y0267000D03*
X0251460Y0267080D03*
X0251220Y0267240D03*
X0249860Y0267560D03*
X0249700Y0267480D03*
X0249620Y0267400D03*
X0249460Y0267320D03*
X0249220Y0267160D03*
X0248820Y0266920D03*
X0248420Y0266680D03*
X0240660Y0267160D03*
X0240500Y0267000D03*
X0238500Y0267080D03*
X0238260Y0267240D03*
X0234500Y0266120D03*
X0234100Y0266360D03*
X0233860Y0266520D03*
X0233700Y0266600D03*
X0233620Y0266680D03*
X0233460Y0266760D03*
X0233220Y0266920D03*
X0232900Y0267160D03*
X0232820Y0267240D03*
X0232420Y0267560D03*
X0232260Y0267720D03*
X0231700Y0267320D03*
X0231620Y0267400D03*
X0231860Y0267160D03*
X0232020Y0267000D03*
X0232260Y0266840D03*
X0232100Y0275000D03*
X0231860Y0275160D03*
X0232500Y0278520D03*
X0232500Y0279880D03*
X0232820Y0280120D03*
X0232900Y0280200D03*
X0234100Y0278600D03*
X0234820Y0278280D03*
X0234900Y0278200D03*
X0237300Y0278360D03*
X0238820Y0278440D03*
X0241220Y0278120D03*
X0241620Y0277880D03*
X0241860Y0277720D03*
X0242020Y0277640D03*
X0242260Y0277480D03*
X0242420Y0277400D03*
X0242500Y0277320D03*
X0242660Y0277240D03*
X0244900Y0277000D03*
X0245060Y0278360D03*
X0244900Y0274040D03*
X0244660Y0273880D03*
X0240100Y0271880D03*
X0240020Y0271800D03*
X0239700Y0271560D03*
X0251620Y0272760D03*
X0251860Y0273000D03*
X0252020Y0273160D03*
X0252100Y0273240D03*
X0252260Y0273400D03*
X0254500Y0276760D03*
X0254820Y0277000D03*
X0255060Y0277160D03*
X0255300Y0277320D03*
X0255460Y0277480D03*
X0254100Y0278680D03*
X0253220Y0279960D03*
X0255460Y0281480D03*
X0253060Y0284440D03*
X0249060Y0285320D03*
X0248260Y0286360D03*
X0248100Y0286520D03*
X0248020Y0286600D03*
X0247860Y0286760D03*
X0247620Y0286920D03*
X0248260Y0288120D03*
X0249860Y0287720D03*
X0250020Y0287640D03*
X0252420Y0289320D03*
X0247060Y0291160D03*
X0245860Y0291080D03*
X0245700Y0291000D03*
X0243300Y0291000D03*
X0242900Y0291240D03*
X0240100Y0290920D03*
X0238100Y0291400D03*
X0238020Y0292360D03*
X0236500Y0290760D03*
X0236260Y0289640D03*
X0236020Y0288840D03*
X0234500Y0289000D03*
X0234260Y0291960D03*
X0234420Y0292120D03*
X0234500Y0292200D03*
X0234820Y0292440D03*
X0231300Y0293000D03*
X0231220Y0293080D03*
X0230900Y0293400D03*
X0231060Y0292360D03*
X0231060Y0289960D03*
X0230500Y0289560D03*
X0230020Y0289160D03*
X0230100Y0289080D03*
X0231460Y0285800D03*
X0231460Y0285720D03*
X0231460Y0285640D03*
X0230900Y0294920D03*
X0231060Y0295080D03*
X0231300Y0295320D03*
X0234820Y0298280D03*
X0234900Y0298360D03*
X0235060Y0298440D03*
X0235060Y0300840D03*
X0236820Y0300440D03*
X0237060Y0300280D03*
X0237220Y0300200D03*
X0237300Y0300120D03*
X0237620Y0299880D03*
X0238420Y0299800D03*
X0238500Y0299880D03*
X0238820Y0300120D03*
X0239060Y0300280D03*
X0239300Y0300440D03*
X0239700Y0300760D03*
X0242020Y0299320D03*
X0248900Y0300360D03*
X0249060Y0300280D03*
X0249620Y0299720D03*
X0250260Y0301400D03*
X0250820Y0302040D03*
X0250900Y0302120D03*
X0252500Y0299320D03*
X0252820Y0299000D03*
X0252900Y0298920D03*
X0253060Y0298760D03*
X0253300Y0298600D03*
X0253700Y0298360D03*
X0254500Y0298760D03*
X0257700Y0295720D03*
X0258100Y0295480D03*
X0258500Y0295240D03*
X0258820Y0295000D03*
X0259060Y0294840D03*
X0259460Y0294520D03*
X0259860Y0294200D03*
X0262660Y0286120D03*
X0262820Y0286040D03*
X0262900Y0285960D03*
X0263300Y0285480D03*
X0263300Y0285400D03*
X0263300Y0285320D03*
X0263620Y0276760D03*
X0261620Y0276280D03*
X0262820Y0274200D03*
X0263060Y0273560D03*
X0261620Y0272680D03*
X0259060Y0269880D03*
X0257460Y0268680D03*
X0256900Y0269400D03*
X0256020Y0265960D03*
X0245460Y0287960D03*
X0244820Y0288200D03*
X0240820Y0288360D03*
D46*
X0237620Y0273000D03*
X0253220Y0266040D03*
D47*
X0254140Y0266840D03*
X0256220Y0266920D03*
X0256780Y0266360D03*
X0257260Y0269640D03*
X0257420Y0269720D03*
X0257740Y0269880D03*
X0257900Y0269960D03*
X0258060Y0270040D03*
X0258220Y0270120D03*
X0259020Y0269800D03*
X0259980Y0269640D03*
X0258940Y0271320D03*
X0262380Y0273960D03*
X0262540Y0274040D03*
X0262700Y0274120D03*
X0262860Y0273400D03*
X0262940Y0276360D03*
X0263100Y0276440D03*
X0263260Y0276520D03*
X0254620Y0276840D03*
X0253340Y0280040D03*
X0254380Y0281960D03*
X0255100Y0281720D03*
X0255260Y0281640D03*
X0262380Y0285160D03*
X0263340Y0285560D03*
X0258220Y0295400D03*
X0257980Y0295560D03*
X0257820Y0295640D03*
X0257580Y0295800D03*
X0257420Y0295880D03*
X0257260Y0295960D03*
X0255020Y0296680D03*
X0254380Y0298680D03*
X0254620Y0298840D03*
X0253420Y0298520D03*
X0249900Y0299560D03*
X0249420Y0302200D03*
X0251420Y0302360D03*
X0243100Y0299880D03*
X0242780Y0299720D03*
X0242620Y0299640D03*
X0242460Y0299560D03*
X0242300Y0299480D03*
X0241900Y0299240D03*
X0241740Y0299160D03*
X0241580Y0299080D03*
X0241420Y0299000D03*
X0241260Y0298920D03*
X0239660Y0300680D03*
X0238060Y0299560D03*
X0236540Y0300600D03*
X0234700Y0298200D03*
X0233100Y0297800D03*
X0235260Y0292680D03*
X0235100Y0292600D03*
X0234940Y0292520D03*
X0236540Y0290840D03*
X0237980Y0291320D03*
X0237820Y0292520D03*
X0237660Y0292600D03*
X0239500Y0290600D03*
X0239660Y0290680D03*
X0239820Y0290760D03*
X0240460Y0291160D03*
X0240700Y0291320D03*
X0243020Y0291160D03*
X0243180Y0291080D03*
X0243660Y0290760D03*
X0245420Y0290840D03*
X0245580Y0290920D03*
X0244380Y0288680D03*
X0243340Y0288840D03*
X0242700Y0287000D03*
X0246540Y0287480D03*
X0246700Y0287400D03*
X0246860Y0287320D03*
X0247020Y0287240D03*
X0247180Y0287160D03*
X0247340Y0287080D03*
X0247500Y0287000D03*
X0247740Y0285960D03*
X0247980Y0285880D03*
X0248940Y0285400D03*
X0248620Y0287880D03*
X0248460Y0287960D03*
X0250060Y0289480D03*
X0238220Y0288600D03*
X0237260Y0287000D03*
X0236380Y0289320D03*
X0234940Y0289320D03*
X0230620Y0289640D03*
X0230380Y0289480D03*
X0232700Y0280040D03*
X0232620Y0279960D03*
X0232380Y0279800D03*
X0232300Y0279720D03*
X0232220Y0279640D03*
X0232140Y0279560D03*
X0232060Y0279480D03*
X0231980Y0279400D03*
X0234380Y0278760D03*
X0235260Y0277960D03*
X0236700Y0278040D03*
X0236860Y0278120D03*
X0237020Y0278200D03*
X0237500Y0278520D03*
X0238700Y0278520D03*
X0239260Y0278120D03*
X0240460Y0278040D03*
X0241340Y0278040D03*
X0241500Y0277960D03*
X0241740Y0277800D03*
X0242140Y0277560D03*
X0242780Y0277160D03*
X0242940Y0277080D03*
X0243020Y0277000D03*
X0245100Y0278280D03*
X0244780Y0273960D03*
X0244460Y0273800D03*
X0239580Y0271480D03*
X0248940Y0267000D03*
X0249100Y0267080D03*
X0249340Y0267240D03*
X0248700Y0266840D03*
X0248540Y0266760D03*
X0248300Y0266600D03*
X0248140Y0266520D03*
X0247980Y0266440D03*
X0247820Y0266360D03*
X0247660Y0266280D03*
X0247500Y0266200D03*
X0247180Y0266040D03*
X0250700Y0267560D03*
X0250860Y0267480D03*
X0251100Y0267320D03*
X0251340Y0267160D03*
X0251740Y0266920D03*
X0240220Y0266840D03*
X0238860Y0266840D03*
X0238700Y0266920D03*
X0234700Y0266040D03*
X0234380Y0266200D03*
X0234220Y0266280D03*
X0233980Y0266440D03*
X0232940Y0266280D03*
X0232620Y0266520D03*
X0232540Y0266600D03*
X0232460Y0266680D03*
X0232140Y0266920D03*
X0232220Y0274920D03*
D48*
X0252540Y0281560D03*
X0254940Y0266120D03*
D49*
X0256540Y0266680D03*
X0256620Y0266520D03*
X0256780Y0266280D03*
X0257020Y0266680D03*
X0257020Y0267640D03*
X0257020Y0267720D03*
X0256940Y0268040D03*
X0256780Y0268520D03*
X0256780Y0268600D03*
X0256700Y0268760D03*
X0256700Y0269160D03*
X0256700Y0269240D03*
X0256780Y0269320D03*
X0258540Y0270360D03*
X0258620Y0270440D03*
X0258700Y0270600D03*
X0258780Y0270840D03*
X0258780Y0270920D03*
X0259180Y0271080D03*
X0259340Y0270920D03*
X0259420Y0270840D03*
X0259500Y0270760D03*
X0259580Y0270680D03*
X0259740Y0270200D03*
X0259820Y0269800D03*
X0259820Y0269720D03*
X0259900Y0269480D03*
X0260140Y0269720D03*
X0260220Y0269800D03*
X0260300Y0269880D03*
X0260300Y0269960D03*
X0260380Y0270040D03*
X0260540Y0270280D03*
X0260620Y0270440D03*
X0260700Y0270680D03*
X0260700Y0270760D03*
X0260700Y0272040D03*
X0260700Y0272120D03*
X0260620Y0272440D03*
X0260620Y0272520D03*
X0260540Y0272760D03*
X0260540Y0272840D03*
X0260380Y0273240D03*
X0260300Y0273320D03*
X0260300Y0273400D03*
X0260220Y0273480D03*
X0260140Y0273640D03*
X0258940Y0271480D03*
X0258940Y0271400D03*
X0259100Y0269960D03*
X0263180Y0273640D03*
X0262940Y0274280D03*
X0263020Y0274360D03*
X0263100Y0274440D03*
X0263180Y0274600D03*
X0263340Y0274840D03*
X0263340Y0274920D03*
X0263420Y0275080D03*
X0263500Y0275320D03*
X0263500Y0275400D03*
X0263580Y0275720D03*
X0261500Y0276440D03*
X0261420Y0276520D03*
X0261340Y0276600D03*
X0261180Y0276920D03*
X0261100Y0277160D03*
X0261020Y0277400D03*
X0261020Y0277880D03*
X0261100Y0278280D03*
X0261180Y0278600D03*
X0261180Y0278680D03*
X0261340Y0279240D03*
X0261340Y0279320D03*
X0261420Y0279640D03*
X0261500Y0279880D03*
X0261500Y0279960D03*
X0261580Y0280200D03*
X0261580Y0280280D03*
X0261740Y0280840D03*
X0261820Y0281080D03*
X0261820Y0281160D03*
X0261900Y0281400D03*
X0261980Y0281720D03*
X0261980Y0283960D03*
X0261900Y0284200D03*
X0261820Y0284440D03*
X0261740Y0284600D03*
X0261580Y0284760D03*
X0261500Y0284840D03*
X0261420Y0285000D03*
X0261340Y0285080D03*
X0261180Y0285320D03*
X0261100Y0285480D03*
X0261020Y0285640D03*
X0261020Y0286120D03*
X0263020Y0285880D03*
X0263100Y0285720D03*
X0263420Y0285720D03*
X0263420Y0286040D03*
X0263420Y0286120D03*
X0263420Y0286200D03*
X0263340Y0286440D03*
X0263180Y0286760D03*
X0263100Y0286920D03*
X0263020Y0287000D03*
X0262940Y0287160D03*
X0262780Y0287320D03*
X0262700Y0287400D03*
X0262620Y0287480D03*
X0262540Y0287560D03*
X0262540Y0288680D03*
X0262540Y0288760D03*
X0262540Y0288840D03*
X0262540Y0288920D03*
X0262380Y0289880D03*
X0262380Y0289960D03*
X0262300Y0290280D03*
X0262300Y0290360D03*
X0262220Y0290600D03*
X0262220Y0290680D03*
X0262140Y0290920D03*
X0261980Y0291400D03*
X0261900Y0291560D03*
X0261820Y0291720D03*
X0261740Y0291880D03*
X0261580Y0292200D03*
X0261500Y0292360D03*
X0261420Y0292440D03*
X0261340Y0292600D03*
X0261180Y0292760D03*
X0261100Y0292920D03*
X0261020Y0293000D03*
X0260940Y0293080D03*
X0260780Y0293240D03*
X0260780Y0293320D03*
X0260700Y0293400D03*
X0260620Y0293480D03*
X0260540Y0293560D03*
X0260380Y0293720D03*
X0260300Y0293800D03*
X0260220Y0293880D03*
X0260140Y0293960D03*
X0259580Y0294440D03*
X0259180Y0294760D03*
X0257180Y0296040D03*
X0257180Y0296120D03*
X0257340Y0296280D03*
X0257420Y0296440D03*
X0257500Y0296520D03*
X0257500Y0296600D03*
X0257580Y0296760D03*
X0257580Y0296920D03*
X0254940Y0297560D03*
X0254940Y0297640D03*
X0254940Y0297720D03*
X0255020Y0298040D03*
X0255020Y0298120D03*
X0255100Y0298280D03*
X0255180Y0298440D03*
X0255340Y0298680D03*
X0255420Y0298840D03*
X0255500Y0298920D03*
X0253180Y0298680D03*
X0252700Y0299080D03*
X0252620Y0299160D03*
X0252540Y0299240D03*
X0252380Y0299400D03*
X0252380Y0299480D03*
X0252300Y0299560D03*
X0252220Y0299640D03*
X0252140Y0299720D03*
X0251980Y0299880D03*
X0251900Y0299960D03*
X0251900Y0300040D03*
X0251820Y0300120D03*
X0251740Y0300200D03*
X0251580Y0300360D03*
X0251580Y0300440D03*
X0251500Y0300520D03*
X0251420Y0300600D03*
X0251340Y0300760D03*
X0251180Y0301000D03*
X0251180Y0301080D03*
X0251180Y0301640D03*
X0251180Y0301720D03*
X0251340Y0302040D03*
X0251340Y0302120D03*
X0250700Y0301960D03*
X0250620Y0301880D03*
X0250540Y0301720D03*
X0250380Y0301560D03*
X0249980Y0301320D03*
X0249980Y0301240D03*
X0249820Y0301640D03*
X0249340Y0302280D03*
X0250140Y0300280D03*
X0250140Y0300200D03*
X0250140Y0300120D03*
X0250140Y0300040D03*
X0250140Y0299960D03*
X0249500Y0299800D03*
X0249420Y0299880D03*
X0249340Y0299960D03*
X0249180Y0300120D03*
X0246540Y0291400D03*
X0247180Y0291080D03*
X0247340Y0290920D03*
X0247420Y0290840D03*
X0247420Y0290760D03*
X0247500Y0290680D03*
X0247580Y0290440D03*
X0247740Y0289320D03*
X0247740Y0289240D03*
X0247740Y0289160D03*
X0247740Y0289080D03*
X0247740Y0289000D03*
X0247820Y0288680D03*
X0247900Y0288520D03*
X0247980Y0288360D03*
X0248140Y0288200D03*
X0249340Y0288360D03*
X0249340Y0288440D03*
X0249340Y0288600D03*
X0249340Y0288680D03*
X0249420Y0288840D03*
X0249500Y0289000D03*
X0249580Y0289080D03*
X0249740Y0289240D03*
X0249820Y0289320D03*
X0249420Y0288200D03*
X0249500Y0288040D03*
X0249580Y0287960D03*
X0248300Y0286280D03*
X0248380Y0286200D03*
X0248540Y0286040D03*
X0248620Y0285960D03*
X0248700Y0285880D03*
X0248780Y0285800D03*
X0248780Y0285720D03*
X0247740Y0286840D03*
X0245500Y0288200D03*
X0244700Y0288360D03*
X0244620Y0288440D03*
X0244540Y0288520D03*
X0243420Y0288600D03*
X0243420Y0288680D03*
X0243340Y0288920D03*
X0243100Y0288680D03*
X0243020Y0288600D03*
X0242940Y0288520D03*
X0242940Y0288440D03*
X0242780Y0288280D03*
X0242700Y0288200D03*
X0242700Y0288120D03*
X0242620Y0288040D03*
X0242540Y0287880D03*
X0242380Y0287480D03*
X0242380Y0287400D03*
X0238140Y0288520D03*
X0237100Y0287960D03*
X0237100Y0287880D03*
X0237180Y0287720D03*
X0237180Y0287640D03*
X0237020Y0288120D03*
X0236940Y0288280D03*
X0236940Y0288360D03*
X0236780Y0288680D03*
X0236700Y0288840D03*
X0236620Y0289000D03*
X0236540Y0289160D03*
X0236220Y0289080D03*
X0236140Y0288920D03*
X0236300Y0289560D03*
X0236220Y0289720D03*
X0235420Y0288920D03*
X0235340Y0289000D03*
X0235180Y0289160D03*
X0234940Y0289400D03*
X0234700Y0289160D03*
X0234620Y0289080D03*
X0232940Y0290120D03*
X0233020Y0290280D03*
X0233100Y0290440D03*
X0233180Y0290520D03*
X0233340Y0290760D03*
X0233420Y0290840D03*
X0233420Y0290920D03*
X0233500Y0291000D03*
X0233580Y0291080D03*
X0233740Y0291320D03*
X0233820Y0291400D03*
X0233820Y0291480D03*
X0233900Y0291560D03*
X0233980Y0291640D03*
X0234140Y0291800D03*
X0234220Y0291880D03*
X0234620Y0292280D03*
X0231980Y0292040D03*
X0231980Y0291960D03*
X0231980Y0291880D03*
X0231980Y0291800D03*
X0231980Y0291720D03*
X0231900Y0291400D03*
X0231900Y0291320D03*
X0231820Y0291080D03*
X0231740Y0290920D03*
X0231580Y0290600D03*
X0231500Y0290440D03*
X0231420Y0290360D03*
X0231340Y0290280D03*
X0231340Y0290200D03*
X0231180Y0290040D03*
X0231580Y0288760D03*
X0231580Y0288680D03*
X0231500Y0288440D03*
X0231420Y0288200D03*
X0231420Y0288120D03*
X0232300Y0288200D03*
X0232380Y0288520D03*
X0232380Y0288600D03*
X0232540Y0289080D03*
X0232620Y0289320D03*
X0232620Y0289400D03*
X0232700Y0289560D03*
X0232780Y0289800D03*
X0231900Y0292280D03*
X0231900Y0292360D03*
X0231820Y0292520D03*
X0231740Y0292600D03*
X0231580Y0292760D03*
X0231500Y0292840D03*
X0231420Y0292920D03*
X0231020Y0293240D03*
X0230940Y0293320D03*
X0230780Y0293560D03*
X0230700Y0293720D03*
X0230620Y0293880D03*
X0230620Y0293960D03*
X0230620Y0294040D03*
X0230620Y0294280D03*
X0230620Y0294360D03*
X0230700Y0294600D03*
X0230780Y0294760D03*
X0231420Y0295400D03*
X0231500Y0295480D03*
X0231580Y0295560D03*
X0231740Y0295720D03*
X0231820Y0295880D03*
X0231900Y0295960D03*
X0231980Y0296040D03*
X0232140Y0296200D03*
X0232220Y0296360D03*
X0232300Y0296440D03*
X0232380Y0296600D03*
X0232540Y0297000D03*
X0232620Y0297240D03*
X0232700Y0297400D03*
X0232780Y0297560D03*
X0232940Y0297720D03*
X0235100Y0298520D03*
X0235180Y0298600D03*
X0235340Y0298760D03*
X0235420Y0298840D03*
X0235420Y0298920D03*
X0235500Y0299000D03*
X0235580Y0299240D03*
X0235580Y0300040D03*
X0235500Y0300200D03*
X0235500Y0300280D03*
X0235420Y0300360D03*
X0235340Y0300520D03*
X0235180Y0300680D03*
X0234540Y0301320D03*
X0237420Y0300040D03*
X0237740Y0299800D03*
X0237820Y0299720D03*
X0238300Y0299720D03*
X0238620Y0299960D03*
X0238940Y0300200D03*
X0239180Y0300360D03*
X0239500Y0300600D03*
X0239740Y0300520D03*
X0239740Y0300440D03*
X0239740Y0300360D03*
X0239740Y0299800D03*
X0239740Y0299720D03*
X0239740Y0299640D03*
X0239820Y0299320D03*
X0239900Y0299160D03*
X0239980Y0299000D03*
X0238140Y0292280D03*
X0238220Y0292200D03*
X0238300Y0292120D03*
X0238300Y0292040D03*
X0238380Y0291960D03*
X0238380Y0291880D03*
X0238380Y0291800D03*
X0238380Y0291720D03*
X0238300Y0291560D03*
X0238220Y0291480D03*
X0237420Y0286600D03*
X0237420Y0286520D03*
X0237420Y0286440D03*
X0237420Y0286360D03*
X0237420Y0286280D03*
X0237420Y0286200D03*
X0237420Y0286120D03*
X0237420Y0286040D03*
X0237340Y0285720D03*
X0237100Y0284760D03*
X0237100Y0284680D03*
X0237020Y0284520D03*
X0236940Y0284280D03*
X0236780Y0283960D03*
X0236700Y0283800D03*
X0236620Y0283640D03*
X0236540Y0283480D03*
X0236380Y0283240D03*
X0236300Y0283160D03*
X0236300Y0283080D03*
X0236220Y0283000D03*
X0236140Y0282920D03*
X0236140Y0282840D03*
X0235980Y0282680D03*
X0235900Y0282520D03*
X0235820Y0282440D03*
X0235740Y0282360D03*
X0235740Y0282280D03*
X0235580Y0282120D03*
X0235500Y0282040D03*
X0235500Y0281960D03*
X0235420Y0281880D03*
X0235340Y0281800D03*
X0235180Y0281640D03*
X0235100Y0281560D03*
X0235100Y0281480D03*
X0235020Y0281400D03*
X0234940Y0281320D03*
X0234780Y0281160D03*
X0234700Y0281080D03*
X0234620Y0280920D03*
X0234540Y0280840D03*
X0234380Y0280600D03*
X0234300Y0280440D03*
X0234220Y0280200D03*
X0234220Y0279320D03*
X0234300Y0278920D03*
X0234380Y0278840D03*
X0234540Y0278600D03*
X0234620Y0278520D03*
X0234700Y0278440D03*
X0235020Y0278120D03*
X0232380Y0278600D03*
X0232300Y0278680D03*
X0232220Y0278760D03*
X0232140Y0278920D03*
X0231740Y0279240D03*
X0231580Y0279080D03*
X0231500Y0278920D03*
X0231420Y0278840D03*
X0231340Y0278680D03*
X0231180Y0278280D03*
X0231100Y0277960D03*
X0231100Y0277880D03*
X0231100Y0277800D03*
X0231100Y0276760D03*
X0231100Y0276680D03*
X0231180Y0276280D03*
X0231340Y0275800D03*
X0231420Y0275640D03*
X0231500Y0275560D03*
X0231580Y0275400D03*
X0231740Y0275240D03*
X0228780Y0275240D03*
X0228780Y0275160D03*
X0228780Y0275080D03*
X0228780Y0275000D03*
X0228780Y0274920D03*
X0228780Y0274840D03*
X0228780Y0275320D03*
X0228780Y0275400D03*
X0228780Y0276200D03*
X0228780Y0276280D03*
X0228780Y0276360D03*
X0228780Y0276440D03*
X0228780Y0276520D03*
X0228780Y0276600D03*
X0228780Y0276680D03*
X0228780Y0276760D03*
X0228940Y0278040D03*
X0228940Y0278120D03*
X0229020Y0278520D03*
X0229100Y0278840D03*
X0229100Y0278920D03*
X0229180Y0279160D03*
X0229180Y0279240D03*
X0229340Y0279720D03*
X0229420Y0279960D03*
X0229500Y0280120D03*
X0229580Y0280280D03*
X0229580Y0280360D03*
X0229740Y0280760D03*
X0229820Y0281000D03*
X0229900Y0281240D03*
X0229980Y0281480D03*
X0230140Y0281960D03*
X0230220Y0282120D03*
X0230300Y0282200D03*
X0230300Y0282280D03*
X0230380Y0282360D03*
X0231180Y0283880D03*
X0231340Y0284040D03*
X0231420Y0284120D03*
X0231500Y0284200D03*
X0231580Y0284360D03*
X0231740Y0284600D03*
X0231820Y0284760D03*
X0231900Y0284920D03*
X0231980Y0285080D03*
X0232140Y0285480D03*
X0232220Y0285720D03*
X0232220Y0285800D03*
X0232300Y0286120D03*
X0232300Y0286200D03*
X0231580Y0286040D03*
X0231580Y0285960D03*
X0231340Y0285480D03*
X0229900Y0289240D03*
X0231180Y0292200D03*
X0240380Y0279960D03*
X0240540Y0279800D03*
X0240620Y0279720D03*
X0240700Y0279640D03*
X0240700Y0279560D03*
X0240780Y0279480D03*
X0240940Y0279160D03*
X0240940Y0279080D03*
X0241020Y0278760D03*
X0241020Y0278680D03*
X0240940Y0278360D03*
X0239020Y0278280D03*
X0238940Y0278360D03*
X0240380Y0272280D03*
X0240300Y0272120D03*
X0240220Y0272040D03*
X0240140Y0271960D03*
X0239820Y0271640D03*
X0241180Y0267960D03*
X0241180Y0267880D03*
X0241100Y0267800D03*
X0241020Y0267640D03*
X0240940Y0267480D03*
X0240780Y0267320D03*
X0240700Y0267240D03*
X0237980Y0267480D03*
X0237900Y0267560D03*
X0237820Y0267640D03*
X0237740Y0267720D03*
X0233020Y0267080D03*
X0232620Y0267400D03*
X0232540Y0267480D03*
X0232140Y0267800D03*
X0231980Y0267960D03*
X0231900Y0268040D03*
X0231820Y0268120D03*
X0231740Y0268200D03*
X0231580Y0268360D03*
X0231500Y0268440D03*
X0231420Y0268520D03*
X0231340Y0268600D03*
X0231180Y0268760D03*
X0231180Y0268840D03*
X0231100Y0268920D03*
X0231020Y0269000D03*
X0230940Y0269080D03*
X0230780Y0269320D03*
X0230700Y0269400D03*
X0230620Y0269560D03*
X0230540Y0269640D03*
X0230540Y0269720D03*
X0230380Y0269960D03*
X0230300Y0270040D03*
X0230300Y0270120D03*
X0230220Y0270200D03*
X0230140Y0270360D03*
X0229980Y0270680D03*
X0229900Y0270840D03*
X0229820Y0271000D03*
X0229740Y0271240D03*
X0229580Y0271640D03*
X0229500Y0271800D03*
X0229420Y0272040D03*
X0229340Y0272280D03*
X0229180Y0272840D03*
X0229100Y0273160D03*
X0229020Y0273480D03*
X0228940Y0273800D03*
X0228940Y0273880D03*
X0230940Y0268120D03*
X0231020Y0268040D03*
X0231340Y0267720D03*
X0231340Y0267640D03*
X0231420Y0267560D03*
X0245100Y0274200D03*
X0245180Y0274280D03*
X0245340Y0274440D03*
X0245420Y0274520D03*
X0245500Y0274600D03*
X0245580Y0274680D03*
X0245580Y0274760D03*
X0245740Y0274920D03*
X0245740Y0275000D03*
X0245820Y0275080D03*
X0245900Y0275240D03*
X0245980Y0275400D03*
X0246140Y0275960D03*
X0246140Y0276040D03*
X0246140Y0276120D03*
X0246140Y0276200D03*
X0246140Y0276280D03*
X0246140Y0276360D03*
X0245980Y0276920D03*
X0245900Y0277160D03*
X0245820Y0277320D03*
X0245820Y0277400D03*
X0245740Y0277480D03*
X0245740Y0277560D03*
X0245580Y0277800D03*
X0245500Y0277960D03*
X0245420Y0278040D03*
X0245340Y0278120D03*
X0245020Y0278120D03*
X0245100Y0277880D03*
X0245100Y0277800D03*
X0245100Y0277720D03*
X0245100Y0277320D03*
X0245100Y0277240D03*
X0245020Y0277160D03*
X0245020Y0277080D03*
X0245020Y0278440D03*
X0253100Y0279880D03*
X0254540Y0279880D03*
X0254540Y0279480D03*
X0254540Y0279400D03*
X0254380Y0279080D03*
X0254380Y0279000D03*
X0254300Y0278920D03*
X0254220Y0278840D03*
X0254140Y0278760D03*
X0255820Y0278120D03*
X0255820Y0278040D03*
X0255740Y0277880D03*
X0255580Y0277640D03*
X0255500Y0277560D03*
X0255180Y0277240D03*
X0255900Y0278360D03*
X0255980Y0278680D03*
X0255980Y0278760D03*
X0255980Y0280040D03*
X0255980Y0280120D03*
X0255900Y0280520D03*
X0255820Y0280760D03*
X0255820Y0280840D03*
X0255740Y0281000D03*
X0255740Y0281080D03*
X0255580Y0281320D03*
X0255500Y0281400D03*
X0253740Y0282600D03*
X0253740Y0282680D03*
X0253740Y0282760D03*
X0253820Y0283080D03*
X0253820Y0283160D03*
X0253820Y0283240D03*
X0253820Y0283320D03*
X0253740Y0283560D03*
X0253580Y0283800D03*
X0253580Y0283880D03*
X0253500Y0283960D03*
X0253420Y0284040D03*
X0253340Y0284120D03*
X0253180Y0284280D03*
X0252940Y0284600D03*
X0252780Y0284760D03*
X0252700Y0284840D03*
X0252620Y0284920D03*
X0252540Y0285080D03*
X0252380Y0285320D03*
X0252380Y0285400D03*
X0252380Y0286120D03*
X0252380Y0286200D03*
X0252540Y0286680D03*
X0252620Y0286840D03*
X0252700Y0287000D03*
X0252780Y0287160D03*
X0252940Y0287480D03*
X0252940Y0287560D03*
X0253020Y0287800D03*
X0253020Y0287880D03*
X0253020Y0287960D03*
X0253020Y0288040D03*
X0253020Y0288120D03*
X0252940Y0288440D03*
X0252940Y0288520D03*
X0252780Y0288840D03*
X0252700Y0289000D03*
X0252620Y0289080D03*
X0252540Y0289160D03*
X0253500Y0275560D03*
X0253420Y0275240D03*
X0253340Y0275000D03*
X0253180Y0274600D03*
X0253100Y0274440D03*
X0253020Y0274280D03*
X0252940Y0274200D03*
X0252940Y0274120D03*
X0252780Y0273960D03*
X0252700Y0273800D03*
X0252620Y0273720D03*
X0252540Y0273640D03*
X0251740Y0272920D03*
X0251500Y0272600D03*
X0251420Y0272520D03*
X0251340Y0272440D03*
X0251180Y0272280D03*
X0251100Y0272200D03*
X0251020Y0272040D03*
X0250940Y0271960D03*
X0250780Y0271720D03*
X0250700Y0271640D03*
X0250700Y0271560D03*
X0250620Y0271480D03*
X0250540Y0271320D03*
X0250380Y0271000D03*
X0250300Y0270840D03*
X0250220Y0270600D03*
X0250140Y0270360D03*
X0250140Y0270280D03*
X0250140Y0268840D03*
X0250220Y0268600D03*
X0250220Y0268520D03*
X0250300Y0268360D03*
X0250380Y0268200D03*
X0250220Y0267880D03*
X0250540Y0267880D03*
D50*
X0250260Y0266520D03*
X0231540Y0282680D03*
X0231780Y0287320D03*
X0233380Y0288840D03*
D51*
X0233300Y0288760D03*
X0242900Y0285720D03*
X0245700Y0300440D03*
X0253060Y0266680D03*
D52*
X0239540Y0266680D03*
X0239940Y0277960D03*
X0241780Y0282200D03*
X0241780Y0282280D03*
X0241540Y0283880D03*
X0241940Y0284840D03*
X0244180Y0284200D03*
X0244180Y0282840D03*
X0247140Y0284280D03*
X0246980Y0284600D03*
X0246980Y0284680D03*
X0249780Y0287560D03*
X0252980Y0281320D03*
X0235540Y0283400D03*
X0235380Y0286680D03*
X0230740Y0286600D03*
X0233540Y0297880D03*
D53*
X0232860Y0297640D03*
X0232460Y0296840D03*
X0232060Y0296120D03*
X0231660Y0295640D03*
X0231260Y0295240D03*
X0230860Y0293480D03*
X0230860Y0292520D03*
X0231260Y0292120D03*
X0231660Y0292680D03*
X0231660Y0290760D03*
X0231260Y0290120D03*
X0230860Y0289800D03*
X0232860Y0289960D03*
X0233260Y0290680D03*
X0233660Y0291240D03*
X0234060Y0291720D03*
X0235260Y0289080D03*
X0236860Y0288520D03*
X0237260Y0287400D03*
X0236860Y0284120D03*
X0236460Y0283400D03*
X0236460Y0283320D03*
X0236060Y0282760D03*
X0235660Y0282200D03*
X0235260Y0281720D03*
X0234860Y0281240D03*
X0234460Y0280760D03*
X0234460Y0280680D03*
X0232060Y0279080D03*
X0231660Y0279160D03*
X0231260Y0278520D03*
X0229260Y0279480D03*
X0229660Y0280520D03*
X0230060Y0281720D03*
X0230460Y0282440D03*
X0231260Y0283960D03*
X0231660Y0284440D03*
X0232060Y0285240D03*
X0228860Y0277560D03*
X0228860Y0277480D03*
X0228860Y0277400D03*
X0231260Y0276040D03*
X0231660Y0275320D03*
X0228860Y0274360D03*
X0228860Y0274280D03*
X0229260Y0272600D03*
X0229260Y0272520D03*
X0229660Y0271400D03*
X0230060Y0270520D03*
X0230460Y0269800D03*
X0230860Y0269240D03*
X0230860Y0269160D03*
X0231260Y0268680D03*
X0231660Y0268280D03*
X0232060Y0267880D03*
X0238060Y0267400D03*
X0240860Y0267400D03*
X0241260Y0268040D03*
X0241260Y0268120D03*
X0240460Y0272360D03*
X0245260Y0274360D03*
X0245660Y0274840D03*
X0246060Y0275640D03*
X0246060Y0275720D03*
X0246060Y0276680D03*
X0245660Y0277640D03*
X0245260Y0278200D03*
X0240860Y0279320D03*
X0240460Y0279880D03*
X0238060Y0278760D03*
X0242460Y0287160D03*
X0242460Y0287720D03*
X0242860Y0288360D03*
X0247660Y0290040D03*
X0247660Y0290120D03*
X0247260Y0291000D03*
X0248060Y0288280D03*
X0249660Y0287880D03*
X0249660Y0289160D03*
X0252460Y0289240D03*
X0252860Y0288680D03*
X0252860Y0287320D03*
X0252460Y0286440D03*
X0252460Y0285160D03*
X0252860Y0284680D03*
X0253260Y0284200D03*
X0253660Y0283720D03*
X0253660Y0282280D03*
X0253660Y0282200D03*
X0253660Y0282120D03*
X0255660Y0281240D03*
X0254460Y0280040D03*
X0254460Y0279240D03*
X0254460Y0279160D03*
X0254060Y0278600D03*
X0255660Y0277800D03*
X0255660Y0277720D03*
X0253260Y0274840D03*
X0253260Y0274760D03*
X0252860Y0274040D03*
X0252460Y0273560D03*
X0251660Y0272840D03*
X0251260Y0272360D03*
X0250860Y0271880D03*
X0250860Y0271800D03*
X0250460Y0271160D03*
X0250060Y0269960D03*
X0250060Y0269880D03*
X0250060Y0269800D03*
X0250060Y0269720D03*
X0250060Y0269400D03*
X0250060Y0269320D03*
X0250060Y0269240D03*
X0250460Y0268040D03*
X0256460Y0266760D03*
X0256860Y0268360D03*
X0258460Y0270280D03*
X0258860Y0271160D03*
X0259260Y0271000D03*
X0259660Y0270440D03*
X0260460Y0270200D03*
X0260060Y0268760D03*
X0260460Y0273000D03*
X0263260Y0273720D03*
X0263260Y0274680D03*
X0263260Y0274760D03*
X0263660Y0276280D03*
X0263660Y0276360D03*
X0263660Y0276440D03*
X0263660Y0276520D03*
X0263660Y0276840D03*
X0261260Y0276760D03*
X0261260Y0278920D03*
X0261260Y0279000D03*
X0261660Y0280520D03*
X0262060Y0282120D03*
X0262060Y0283560D03*
X0262060Y0283640D03*
X0261660Y0284680D03*
X0261260Y0285160D03*
X0263260Y0285240D03*
X0263260Y0286600D03*
X0263260Y0286680D03*
X0262860Y0287240D03*
X0262460Y0287640D03*
X0262460Y0288120D03*
X0262460Y0288200D03*
X0262460Y0289480D03*
X0262060Y0291160D03*
X0261660Y0292040D03*
X0261260Y0292680D03*
X0260860Y0293160D03*
X0260460Y0293640D03*
X0260060Y0294040D03*
X0259660Y0294360D03*
X0259260Y0294680D03*
X0257260Y0296200D03*
X0255260Y0298600D03*
X0252060Y0299800D03*
X0251660Y0300280D03*
X0251260Y0300840D03*
X0251260Y0301880D03*
X0250460Y0301640D03*
X0250060Y0301720D03*
X0250060Y0300920D03*
X0249260Y0300040D03*
X0240060Y0298920D03*
X0235260Y0298680D03*
X0235260Y0300600D03*
X0234860Y0301000D03*
X0248460Y0286120D03*
X0248860Y0285640D03*
D54*
X0248180Y0286440D03*
X0247940Y0286680D03*
X0248340Y0288040D03*
X0249780Y0287800D03*
X0249940Y0289400D03*
X0252180Y0289480D03*
X0252340Y0289400D03*
X0245540Y0288520D03*
X0243540Y0290840D03*
X0243380Y0290920D03*
X0240580Y0291240D03*
X0240340Y0291080D03*
X0240180Y0291000D03*
X0239940Y0290840D03*
X0237940Y0292440D03*
X0234740Y0292360D03*
X0234340Y0292040D03*
X0231140Y0292280D03*
X0230980Y0292440D03*
X0231140Y0293160D03*
X0230980Y0295000D03*
X0231140Y0295160D03*
X0231780Y0295800D03*
X0230980Y0289880D03*
X0230740Y0289720D03*
X0230180Y0289000D03*
X0230580Y0287960D03*
X0231540Y0285880D03*
X0231380Y0285560D03*
X0235540Y0288840D03*
X0235780Y0288680D03*
X0236340Y0289400D03*
X0236340Y0289480D03*
X0238580Y0285720D03*
X0242580Y0287080D03*
X0240980Y0278280D03*
X0239140Y0278200D03*
X0237380Y0278440D03*
X0237140Y0278280D03*
X0235140Y0278040D03*
X0234740Y0278360D03*
X0233940Y0278520D03*
X0231940Y0275080D03*
X0237380Y0271640D03*
X0239940Y0271720D03*
X0240580Y0267080D03*
X0240340Y0266920D03*
X0238580Y0267000D03*
X0238340Y0267160D03*
X0238180Y0267320D03*
X0233380Y0266840D03*
X0233140Y0267000D03*
X0232740Y0267320D03*
X0232340Y0267640D03*
X0231780Y0267240D03*
X0231940Y0267080D03*
X0232340Y0266760D03*
X0231540Y0267480D03*
X0244980Y0274120D03*
X0251540Y0272680D03*
X0251940Y0273080D03*
X0252180Y0273320D03*
X0252340Y0273480D03*
X0254740Y0276920D03*
X0254980Y0277080D03*
X0255380Y0277400D03*
X0254340Y0280120D03*
X0255380Y0281560D03*
X0253140Y0284360D03*
X0252980Y0284520D03*
X0261140Y0286200D03*
X0259940Y0294120D03*
X0259780Y0294280D03*
X0259380Y0294600D03*
X0258980Y0294920D03*
X0258740Y0295080D03*
X0258580Y0295160D03*
X0258340Y0295320D03*
X0257540Y0297000D03*
X0252980Y0298840D03*
X0249140Y0300200D03*
X0242180Y0299400D03*
X0239380Y0300520D03*
X0238740Y0300040D03*
X0237540Y0299960D03*
X0236980Y0300360D03*
X0236740Y0300520D03*
X0235140Y0300760D03*
X0234980Y0300920D03*
X0261540Y0276360D03*
X0262980Y0273480D03*
X0259940Y0269560D03*
X0258340Y0270200D03*
X0257140Y0269560D03*
X0256980Y0269480D03*
X0256340Y0266840D03*
X0250980Y0267400D03*
X0250580Y0267640D03*
X0249940Y0267640D03*
D55*
X0237540Y0272280D03*
D56*
X0237540Y0272360D03*
D57*
X0237540Y0272440D03*
X0232980Y0281960D03*
X0241140Y0284600D03*
D58*
X0244620Y0286600D03*
X0239580Y0289560D03*
X0252380Y0281640D03*
X0237580Y0272520D03*
D59*
X0237580Y0272600D03*
X0244380Y0280440D03*
X0233020Y0287960D03*
D60*
X0244380Y0280520D03*
X0237580Y0272760D03*
D61*
X0237580Y0272840D03*
D62*
X0237620Y0272920D03*
X0236100Y0274600D03*
X0232900Y0287880D03*
D63*
X0244740Y0286440D03*
X0244420Y0280680D03*
X0237620Y0273160D03*
X0237620Y0273080D03*
D64*
X0237620Y0273240D03*
X0244340Y0286120D03*
D65*
X0244300Y0286040D03*
X0237660Y0273400D03*
D66*
X0237620Y0273480D03*
X0233140Y0282360D03*
X0237620Y0285560D03*
X0244420Y0280840D03*
X0248660Y0282680D03*
D67*
X0237620Y0273640D03*
X0237620Y0273560D03*
D68*
X0237620Y0273720D03*
X0248820Y0282600D03*
X0250020Y0282280D03*
X0244340Y0285880D03*
X0233060Y0287400D03*
D69*
X0237820Y0285400D03*
X0237900Y0285320D03*
X0244460Y0281000D03*
X0237420Y0274280D03*
X0237660Y0273800D03*
D70*
X0237620Y0273880D03*
X0233140Y0282520D03*
X0233300Y0287560D03*
X0237940Y0285240D03*
X0244340Y0285800D03*
D71*
X0244460Y0281080D03*
X0237660Y0273960D03*
D72*
X0237820Y0274040D03*
D73*
X0237700Y0274120D03*
X0252740Y0281800D03*
D74*
X0238020Y0285160D03*
X0237540Y0274200D03*
D75*
X0237260Y0274360D03*
D76*
X0237020Y0274440D03*
X0233100Y0282280D03*
X0244460Y0280760D03*
D77*
X0249220Y0282360D03*
X0235780Y0274520D03*
D78*
X0233260Y0274600D03*
X0235660Y0283560D03*
X0235660Y0286360D03*
X0233660Y0285880D03*
X0233660Y0285800D03*
X0230460Y0286120D03*
X0241660Y0282600D03*
X0241660Y0282520D03*
X0241660Y0282440D03*
X0247260Y0283400D03*
X0247260Y0283800D03*
X0247260Y0283880D03*
D79*
X0248380Y0282840D03*
X0244380Y0280600D03*
X0244300Y0286280D03*
D80*
X0244460Y0280920D03*
X0250380Y0282200D03*
X0237740Y0285480D03*
X0233100Y0282440D03*
D81*
X0238060Y0285080D03*
X0244460Y0281160D03*
D82*
X0242860Y0281240D03*
X0241260Y0284360D03*
X0247660Y0283240D03*
D83*
X0247500Y0283320D03*
X0242460Y0281480D03*
X0234700Y0287240D03*
X0231260Y0287080D03*
X0252860Y0281400D03*
D84*
X0242380Y0281560D03*
X0241340Y0284200D03*
X0240140Y0284840D03*
X0239980Y0284920D03*
X0242380Y0285400D03*
X0236380Y0292920D03*
X0231180Y0282920D03*
D85*
X0242260Y0281640D03*
X0251060Y0289720D03*
X0254260Y0281880D03*
D86*
X0252220Y0281720D03*
X0248220Y0282920D03*
D87*
X0251660Y0281880D03*
X0244300Y0286200D03*
X0233020Y0287720D03*
X0233100Y0282200D03*
D88*
X0251340Y0281960D03*
D89*
X0248100Y0283000D03*
X0233060Y0282040D03*
D90*
X0244300Y0285960D03*
X0250700Y0282120D03*
D91*
X0244660Y0286520D03*
X0244340Y0286360D03*
X0233060Y0282120D03*
D92*
X0249060Y0282440D03*
D93*
X0248940Y0282520D03*
D94*
X0233580Y0287480D03*
D95*
X0233060Y0287640D03*
D96*
X0232980Y0287800D03*
X0239780Y0289480D03*
D97*
X0238220Y0290440D03*
X0233020Y0288040D03*
D98*
X0234078Y0394000D02*
X0234078Y0402407D01*
X0229874Y0406611D01*
X0225671Y0402407D01*
X0225671Y0394000D01*
X0225671Y0400305D02*
X0234078Y0400305D01*
X0239482Y0400305D02*
X0239482Y0404509D01*
X0241584Y0406611D01*
X0247890Y0406611D01*
X0247890Y0394000D01*
X0247890Y0398204D02*
X0241584Y0398204D01*
X0239482Y0400305D01*
X0220266Y0394000D02*
X0220266Y0406611D01*
X0211859Y0394000D01*
X0211859Y0406611D01*
X0206454Y0406611D02*
X0206454Y0394000D01*
X0198047Y0394000D01*
X0192642Y0394000D02*
X0184235Y0394000D01*
X0178831Y0394000D02*
X0178831Y0406611D01*
X0174627Y0402407D01*
X0170423Y0406611D01*
X0170423Y0394000D01*
X0165019Y0394000D02*
X0156612Y0394000D01*
X0160815Y0400305D02*
X0165019Y0400305D01*
X0165019Y0394000D02*
X0165019Y0406611D01*
X0156612Y0406611D01*
X0151207Y0406611D02*
X0142800Y0406611D01*
X0147003Y0406611D02*
X0147003Y0394000D01*
X0137395Y0394000D02*
X0137395Y0406611D01*
X0131090Y0406611D01*
X0128988Y0404509D01*
X0128988Y0400305D01*
X0131090Y0398204D01*
X0137395Y0398204D01*
X0133192Y0398204D02*
X0128988Y0394000D01*
X0123583Y0394000D02*
X0115176Y0394000D01*
X0119380Y0400305D02*
X0123583Y0400305D01*
X0123583Y0394000D02*
X0123583Y0406611D01*
X0115176Y0406611D01*
X0192642Y0406611D02*
X0192642Y0394000D01*
X0202251Y0400305D02*
X0206454Y0400305D01*
X0206454Y0406611D02*
X0198047Y0406611D01*
X0267106Y0404509D02*
X0267106Y0396102D01*
X0269208Y0394000D01*
X0273411Y0394000D01*
X0275513Y0396102D01*
X0275513Y0404509D01*
X0273411Y0406611D01*
X0269208Y0406611D01*
X0267106Y0404509D01*
X0280918Y0406611D02*
X0280918Y0394000D01*
X0289325Y0406611D01*
X0289325Y0394000D01*
X0294329Y0394000D02*
X0298533Y0394000D01*
X0296431Y0394000D02*
X0296431Y0406611D01*
X0298533Y0406611D02*
X0294329Y0406611D01*
X0303937Y0406611D02*
X0303937Y0396102D01*
X0306039Y0394000D01*
X0310243Y0394000D01*
X0312345Y0396102D01*
X0312345Y0406611D01*
X0317749Y0404509D02*
X0319851Y0406611D01*
X0326156Y0406611D01*
X0326156Y0394000D01*
X0319851Y0394000D01*
X0317749Y0396102D01*
X0317749Y0404509D01*
X0331561Y0404509D02*
X0331561Y0400305D01*
X0333663Y0398204D01*
X0339968Y0398204D01*
X0335765Y0398204D02*
X0331561Y0394000D01*
X0339968Y0394000D02*
X0339968Y0406611D01*
X0333663Y0406611D01*
X0331561Y0404509D01*
X0345373Y0402407D02*
X0345373Y0394000D01*
X0345373Y0400305D02*
X0353780Y0400305D01*
X0353780Y0402407D02*
X0353780Y0394000D01*
X0353780Y0402407D02*
X0349576Y0406611D01*
X0345373Y0402407D01*
M02*
