G75*
%MOIN*%
%OFA0B0*%
%FSLAX25Y25*%
%IPPOS*%
%LPD*%
%AMOC8*
5,1,8,0,0,1.08239X$1,22.5*
%
%ADD10C,0.14580*%
%ADD11OC8,0.06000*%
%ADD12C,0.06000*%
%ADD13C,0.07800*%
%ADD14C,0.06000*%
%ADD15C,0.06400*%
%ADD16C,0.07400*%
%ADD17OC8,0.10800*%
%ADD18C,0.09050*%
%ADD19C,0.06800*%
%ADD20C,0.06800*%
%ADD21C,0.13800*%
%ADD22C,0.05550*%
D10*
X0066940Y0034580D03*
X0435260Y0034710D03*
X0432460Y0403310D03*
X0067660Y0402910D03*
D11*
X0399060Y0370310D03*
X0399240Y0333990D03*
D12*
X0399240Y0341990D03*
X0399060Y0362310D03*
D13*
X0381690Y0371760D03*
X0381690Y0391760D03*
X0389470Y0277750D03*
X0409470Y0277750D03*
D14*
X0418040Y0239560D02*
X0418040Y0234360D01*
X0427120Y0234560D02*
X0427120Y0239760D01*
X0427120Y0199760D02*
X0427120Y0194560D01*
X0418040Y0194360D02*
X0418040Y0199560D01*
X0307890Y0242580D02*
X0302690Y0242580D01*
X0302690Y0252580D02*
X0307890Y0252580D01*
X0307890Y0262580D02*
X0302690Y0262580D01*
X0302690Y0272580D02*
X0307890Y0272580D01*
X0307890Y0282580D02*
X0302690Y0282580D01*
X0302690Y0292580D02*
X0307890Y0292580D01*
X0307890Y0302580D02*
X0302690Y0302580D01*
X0302690Y0312580D02*
X0307890Y0312580D01*
X0277890Y0312580D02*
X0272690Y0312580D01*
X0272690Y0302580D02*
X0277890Y0302580D01*
X0277890Y0292580D02*
X0272690Y0292580D01*
X0272690Y0282580D02*
X0277890Y0282580D01*
X0277890Y0272580D02*
X0272690Y0272580D01*
X0272690Y0262580D02*
X0277890Y0262580D01*
X0277890Y0252580D02*
X0272690Y0252580D01*
X0272690Y0242580D02*
X0277890Y0242580D01*
X0282410Y0140240D02*
X0282410Y0135040D01*
X0272410Y0135040D02*
X0272410Y0140240D01*
X0262410Y0140240D02*
X0262410Y0135040D01*
X0252410Y0135040D02*
X0252410Y0140240D01*
X0233710Y0131770D02*
X0228510Y0131770D01*
X0228510Y0121770D02*
X0233710Y0121770D01*
X0233710Y0111770D02*
X0228510Y0111770D01*
X0205530Y0112570D02*
X0200330Y0112570D01*
X0200330Y0122570D02*
X0205530Y0122570D01*
X0205530Y0132570D02*
X0200330Y0132570D01*
X0177450Y0132570D02*
X0172250Y0132570D01*
X0172250Y0122570D02*
X0177450Y0122570D01*
X0177450Y0112570D02*
X0172250Y0112570D01*
X0252410Y0110240D02*
X0252410Y0105040D01*
X0262410Y0105040D02*
X0262410Y0110240D01*
X0272410Y0110240D02*
X0272410Y0105040D01*
X0282410Y0105040D02*
X0282410Y0110240D01*
X0338040Y0079290D02*
X0343240Y0079290D01*
X0378040Y0079290D02*
X0383240Y0079290D01*
D15*
X0211930Y0156050D02*
X0211930Y0161650D01*
X0201930Y0161650D02*
X0201930Y0156050D01*
X0191930Y0156050D02*
X0191930Y0161650D01*
X0181930Y0161650D02*
X0181930Y0156050D01*
X0171930Y0156050D02*
X0171930Y0161650D01*
X0161930Y0161650D02*
X0161930Y0156050D01*
X0151930Y0156050D02*
X0151930Y0161650D01*
X0141930Y0161650D02*
X0141930Y0156050D01*
X0131930Y0156050D02*
X0131930Y0161650D01*
X0121930Y0161650D02*
X0121930Y0156050D01*
X0111930Y0156050D02*
X0111930Y0161650D01*
X0101930Y0161650D02*
X0101930Y0156050D01*
X0091930Y0156050D02*
X0091930Y0161650D01*
X0081930Y0161650D02*
X0081930Y0156050D01*
X0082030Y0234400D02*
X0082030Y0240000D01*
X0092030Y0240000D02*
X0092030Y0234400D01*
X0102030Y0234400D02*
X0102030Y0240000D01*
X0112030Y0240000D02*
X0112030Y0234400D01*
X0122030Y0234400D02*
X0122030Y0240000D01*
X0132030Y0240000D02*
X0132030Y0234400D01*
X0142030Y0234400D02*
X0142030Y0240000D01*
X0152030Y0240000D02*
X0152030Y0234400D01*
X0162030Y0234400D02*
X0162030Y0240000D01*
X0172030Y0240000D02*
X0172030Y0234400D01*
X0182030Y0234400D02*
X0182030Y0240000D01*
X0192030Y0240000D02*
X0192030Y0234400D01*
X0202030Y0234400D02*
X0202030Y0240000D01*
X0212030Y0240000D02*
X0212030Y0234400D01*
X0211870Y0312460D02*
X0211870Y0318060D01*
X0201870Y0318060D02*
X0201870Y0312460D01*
X0191870Y0312460D02*
X0191870Y0318060D01*
X0181870Y0318060D02*
X0181870Y0312460D01*
X0171870Y0312460D02*
X0171870Y0318060D01*
X0161870Y0318060D02*
X0161870Y0312460D01*
X0151870Y0312460D02*
X0151870Y0318060D01*
X0141870Y0318060D02*
X0141870Y0312460D01*
X0131870Y0312460D02*
X0131870Y0318060D01*
X0121870Y0318060D02*
X0121870Y0312460D01*
X0111870Y0312460D02*
X0111870Y0318060D01*
X0101870Y0318060D02*
X0101870Y0312460D01*
X0091870Y0312460D02*
X0091870Y0318060D01*
X0081870Y0318060D02*
X0081870Y0312460D01*
D16*
X0162430Y0142840D03*
X0190890Y0142540D03*
X0219250Y0142240D03*
X0190890Y0102540D03*
X0219250Y0102240D03*
X0162430Y0102840D03*
X0268830Y0157650D03*
X0268830Y0167650D03*
X0268830Y0177650D03*
X0268830Y0187650D03*
X0268830Y0197650D03*
X0268830Y0207150D03*
X0268830Y0217650D03*
X0268830Y0227650D03*
X0308830Y0227650D03*
X0308830Y0217650D03*
X0308830Y0207150D03*
X0308830Y0197650D03*
X0308830Y0187650D03*
X0308830Y0177650D03*
X0308830Y0167650D03*
X0308830Y0157650D03*
X0305490Y0140960D03*
X0295390Y0140960D03*
X0295390Y0100960D03*
X0305490Y0100960D03*
X0403350Y0186610D03*
X0416710Y0184240D03*
X0426510Y0184340D03*
X0403350Y0196610D03*
X0403350Y0206610D03*
X0404310Y0228550D03*
X0404310Y0238550D03*
X0404310Y0248550D03*
X0416710Y0144240D03*
X0426510Y0144340D03*
D17*
X0307690Y0053260D03*
X0182690Y0053260D03*
D18*
X0154110Y0053965D02*
X0154110Y0045715D01*
X0134110Y0045715D02*
X0134110Y0053965D01*
X0340080Y0054185D02*
X0340080Y0045935D01*
X0360080Y0045935D02*
X0360080Y0054185D01*
X0380080Y0054185D02*
X0380080Y0045935D01*
D19*
X0378300Y0167400D03*
X0378300Y0177400D03*
X0378300Y0187400D03*
X0378300Y0197400D03*
X0378300Y0207400D03*
X0378300Y0217400D03*
X0378300Y0227400D03*
X0378300Y0237400D03*
X0378300Y0247400D03*
X0378300Y0257400D03*
X0378300Y0267400D03*
X0378300Y0277400D03*
X0378300Y0287400D03*
X0378300Y0297400D03*
X0378300Y0307400D03*
X0318300Y0307400D03*
X0318300Y0297400D03*
X0318300Y0287400D03*
X0318300Y0277400D03*
X0318300Y0267400D03*
X0318300Y0257400D03*
X0318300Y0247400D03*
X0318300Y0237400D03*
X0318300Y0227400D03*
X0318300Y0217400D03*
X0318300Y0207400D03*
X0318300Y0197400D03*
X0318300Y0187400D03*
X0318300Y0177400D03*
X0318300Y0167400D03*
D20*
X0378500Y0342100D02*
X0384500Y0342100D01*
X0384500Y0352100D02*
X0378500Y0352100D01*
X0378500Y0362100D02*
X0384500Y0362100D01*
D21*
X0291500Y0352100D03*
D22*
X0212000Y0375500D03*
X0212100Y0297500D03*
X0211900Y0218900D03*
X0081900Y0218900D03*
X0082100Y0297500D03*
X0082000Y0375500D03*
M02*
