%
M48
M72
T01C0.01969
T02C0.02400
T03C0.03150
T04C0.03200
T05C0.03543
T06C0.04000
T07C0.05118
T08C0.05500
T09C0.13000
T10C0.13780
%
T01
X175400Y186500
X187500Y186500
T02
X403350Y186610
X403350Y196610
X403350Y206610
X404310Y228550
X404310Y238550
X404310Y248550
T03
X212030Y237200
X202030Y237200
X192030Y237200
X182030Y237200
X172030Y237200
X162030Y237200
X152030Y237200
X142030Y237200
X132030Y237200
X122030Y237200
X112030Y237200
X102030Y237200
X92030Y237200
X82030Y237200
X81870Y315260
X91870Y315260
X101870Y315260
X111870Y315260
X121870Y315260
X131870Y315260
X141870Y315260
X151870Y315260
X161870Y315260
X171870Y315260
X181870Y315260
X191870Y315260
X201870Y315260
X211870Y315260
X211930Y158850
X201930Y158850
X191930Y158850
X181930Y158850
X171930Y158850
X161930Y158850
X151930Y158850
X141930Y158850
X131930Y158850
X121930Y158850
X111930Y158850
X101930Y158850
X91930Y158850
X81930Y158850
T04
X162430Y142840
X174850Y132570
X174850Y122570
X174850Y112570
X202930Y112570
X202930Y122570
X202930Y132570
X190890Y142540
X219250Y142240
X231110Y131770
X231110Y121770
X231110Y111770
X252410Y107640
X262410Y107640
X272410Y107640
X282410Y107640
X295390Y100960
X282410Y137640
X272410Y137640
X262410Y137640
X252410Y137640
X268830Y157650
X268830Y167650
X268830Y177650
X268830Y187650
X268830Y197650
X268830Y207150
X268830Y217650
X268830Y227650
X275290Y242580
X275290Y252580
X275290Y262580
X275290Y272580
X275290Y282580
X275290Y292580
X275290Y302580
X275290Y312580
X305290Y312580
X305290Y302580
X305290Y292580
X305290Y282580
X305290Y272580
X305290Y262580
X305290Y252580
X305290Y242580
X389470Y277750
X409470Y277750
X418040Y236960
X427120Y237160
X427120Y197160
X418040Y196960
X426510Y184340
X416710Y144240
X403740Y84990
X363740Y84990
X305490Y140960
X399240Y333990
X399240Y341990
X399060Y362310
X399060Y370310
X381690Y371760
X381690Y391760
T05
X308830Y227650
X308830Y217650
X308830Y207150
X308830Y197650
X308830Y187650
X308830Y177650
X308830Y167650
X308830Y157650
X295390Y140960
X305490Y100960
X219250Y102240
X190890Y102540
X162430Y102840
X416710Y184240
X426510Y144340
T06
X378300Y167400
X378300Y177400
X378300Y187400
X378300Y197400
X378300Y207400
X378300Y217400
X378300Y227400
X378300Y237400
X378300Y247400
X378300Y257400
X378300Y267400
X378300Y277400
X378300Y287400
X378300Y297400
X378300Y307400
X381500Y342100
X381500Y352100
X381500Y362100
X318300Y307400
X318300Y297400
X318300Y287400
X318300Y277400
X318300Y267400
X318300Y257400
X318300Y247400
X318300Y237400
X318300Y227400
X318300Y217400
X318300Y207400
X318300Y197400
X318300Y187400
X318300Y177400
X318300Y167400
T07
X345090Y52060
X140090Y52060
T08
X117610Y50340
X97610Y50340
X365980Y50160
X385980Y50160
X405980Y50160
T09
X291500Y352100
T10
X66940Y34580
X435260Y34710
X432460Y403310
X67660Y402910
M30
